<svg version="1.1" xmlns="http://www.w3.org/2000/svg" xmlns:xlink="http://www.w3.org/1999/xlink" width="380" height="256.49999" viewBox="0,0,380,256.49999"><g transform="translate(-50,-51.75005)"><g stroke="none" stroke-miterlimit="10"><path d="M60,51.75006h360c5.54,0 10,4.57596 10,10.26v235.98c0,5.68404 -4.46,10.25999 -10,10.25999h-360c-5.54,0 -10,-4.57595 -10,-10.25999v-235.98c0,-5.68404 4.46,-10.26 10,-10.26z" fill="#1e232b" stroke-width="1" stroke-linecap="round" stroke-linejoin="round"/><g fill="#ffffff" stroke-width="0.75719" stroke-linecap="butt" stroke-linejoin="miter"><path d="M114.02638,91.10969c-0.63321,-0.57093 -1.15224,-1.26816 -1.55709,-2.09169c-0.49827,-1.01384 -0.7474,-2.00172 -0.7474,-2.96366c0,-1.08996 0.31315,-2.19895 0.93944,-3.32698c0.38062,-0.68166 0.83564,-1.25432 1.36505,-1.71799h1.01211c-0.46367,0.53287 -0.83737,1.02422 -1.1211,1.47404c-0.71972,1.14879 -1.07959,2.34255 -1.07959,3.5813c0,1.16955 0.3218,2.29757 0.9654,3.38407c0.3045,0.51211 0.71626,1.06574 1.23529,1.66089zM118.46928,83.51109v7.59859h-1.1263v-5.28891c-0.22837,0.391 -0.49827,0.80796 -0.80968,1.25086l-0.53979,-1.16263c0.59169,-0.82699 1.08823,-1.79757 1.48961,-2.91176c0.20069,-0.55363 0.42041,-1.26124 0.65917,-2.12283l1.1263,0.29585c-0.23875,0.82007 -0.50519,1.60034 -0.79931,2.34082zM119.67343,82.05262c0.12803,-0.01038 0.25951,-0.02076 0.39446,-0.03114c1.31141,-0.09343 2.60379,-0.28547 3.87715,-0.57612c0.31142,-0.07266 0.64187,-0.1609 0.99135,-0.26471l0.72145,0.87197c-0.6782,0.19377 -1.38754,0.3564 -2.12802,0.48789c0.01384,0.67128 0.0519,1.32353 0.11418,1.95674l2.43944,-0.14014l0.04151,1.01211l-2.37715,0.12976c0.17993,1.44982 0.44291,2.54671 0.78893,3.29065c0.09342,0.20069 0.20242,0.38754 0.32699,0.56055c0.08305,0.11419 0.14187,0.17128 0.17647,0.17128c0.03806,0 0.08823,-0.11592 0.15052,-0.34775c0.07959,-0.3045 0.14706,-0.75778 0.20242,-1.35986l0.89273,0.70069c-0.10727,0.84083 -0.23183,1.43425 -0.3737,1.78027c-0.19377,0.46367 -0.42561,0.6955 -0.6955,0.6955c-0.23183,0 -0.50692,-0.15571 -0.82526,-0.46713c-0.37716,-0.37024 -0.71626,-0.91868 -1.0173,-1.64532c-0.20415,-0.49481 -0.3564,-1.01038 -0.45674,-1.54671c-0.0865,-0.46713 -0.16436,-1.00692 -0.23356,-1.61937l-0.01557,-0.14014l-1.92041,0.11419v2.48615c0.68166,-0.18339 1.33044,-0.37716 1.94636,-0.58131l0.08303,0.95501c-1.04498,0.4256 -2.22491,0.8045 -3.53978,1.13668l-0.39446,-1.06401c0.20069,-0.03806 0.47751,-0.09688 0.83045,-0.17647zM122.46062,82.71179c-0.53287,0.08304 -1.1038,0.15052 -1.7128,0.20242v1.74913l1.82179,-0.10381c-0.04497,-0.54325 -0.08131,-1.15917 -0.10899,-1.84775zM119.46062,89.8225h3.93944v1.05363h-3.93944zM130.50557,84.7412v-0.50865h2.48615v-0.51384h-1.91522v-0.74221h1.91522v-0.49827h-2.17992v-0.77854h2.17992v-0.69031h1.06401v0.69031h2.48615v0.77854h-2.48615v0.49827h2.11245v0.74221h-2.11245v0.51384h2.76124v0.83045h-6.24912v0.70069h-1.38062v0.55536c0.5398,0.50519 1.04325,1.05017 1.51037,1.63494l-0.5865,0.94464c-0.34602,-0.53287 -0.65398,-0.98962 -0.92387,-1.37024v3.5813h-1.02249v-3.47231c-0.29412,0.75778 -0.67301,1.46539 -1.13667,2.12283l-0.58651,-1.03287c0.6609,-0.76816 1.1955,-1.75605 1.6038,-2.96366h-1.40137v-1.02249h1.52075v-3.73182h1.02249v3.73182zM136.02805,85.61317v4.55708c0,0.30796 -0.07439,0.53633 -0.22318,0.68512c-0.14187,0.14879 -0.38409,0.22318 -0.72665,0.22318c-0.3737,0 -0.80103,-0.02941 -1.282,-0.08823l-0.17128,-0.94463c0.47059,0.05536 0.83391,0.08305 1.08997,0.08305c0.12111,0 0.19377,-0.03633 0.21799,-0.109c0.01384,-0.04498 0.02076,-0.11419 0.02076,-0.20761v-0.78893h-2.79238v2.0865h-1.07439v-5.49652zM132.16127,86.37614v0.5865h2.79238v-0.5865zM132.16127,87.68409v0.60727h2.79238v-0.60727zM127.02808,84.29483c-0.09689,-0.89273 -0.23184,-1.68339 -0.40485,-2.37196l0.90312,-0.25433c0.20761,0.79931 0.34256,1.6038 0.40484,2.41349zM129.29104,84.05089c0.18685,-0.72664 0.34256,-1.5519 0.46712,-2.47577l0.92387,0.22318c-0.14533,1.01384 -0.33391,1.84601 -0.56574,2.49653zM143.1647,81.94362h4.06919v0.87197h-2.30449v0.86159h2.15916v0.84083h-2.15916v1.54671h-4.17819v-1.54671h-1.70242v0.9654c0,1.56747 -0.08304,2.80622 -0.24913,3.71625c-0.12803,0.69204 -0.33564,1.32352 -0.62284,1.89446l-0.94464,-0.7474c0.26298,-0.57093 0.44291,-1.26816 0.5398,-2.09169c0.0865,-0.72318 0.12975,-1.64705 0.12975,-2.77162v-3.53978h4.10553v-0.93425h1.15743zM139.0488,82.8156v0.86159h1.70242v-0.86159zM141.85675,82.8156v0.86159h1.96712v-0.86159zM141.85675,84.51802v0.8045h1.96712v-0.8045zM143.0609,89.96783c-1,0.51903 -2.26989,0.91349 -3.80968,1.18339l-0.53979,-0.95501c1.44636,-0.17301 2.57958,-0.43772 3.39965,-0.79412c-0.70242,-0.50865 -1.30277,-1.11245 -1.80104,-1.81141h-0.71626v-0.90311h6.07784l0.54498,0.45675c-0.51557,0.79239 -1.25086,1.53806 -2.20588,2.23702c0.82007,0.32872 1.93771,0.57093 3.35293,0.72664l-0.60727,0.98097c-1.3564,-0.18339 -2.58823,-0.55709 -3.69549,-1.1211zM141.51938,87.59067c0.41868,0.49135 0.92733,0.92387 1.52595,1.29757c0.67473,-0.43598 1.19549,-0.86851 1.56228,-1.29757zM148.41209,91.10969c0.46367,-0.53287 0.83737,-1.02422 1.12111,-1.47404c0.71972,-1.14879 1.07958,-2.33909 1.07958,-3.57092c0,-1.17647 -0.3218,-2.30795 -0.9654,-3.39445c-0.30104,-0.50519 -0.7128,-1.05882 -1.23529,-1.66089h1.01211c0.63322,0.57439 1.15225,1.27162 1.55709,2.09169c0.49827,1.01384 0.7474,1.99999 0.7474,2.95847c0,1.09342 -0.31488,2.20415 -0.94463,3.33217c-0.37716,0.6782 -0.83045,1.25086 -1.35986,1.71799z"/><g><path d="M66.38094,69.35652v1.30052h3.83556v1.1883h-3.83556v2.8123h1.76924v-2.17854h1.37974v4.03361h-1.37974v-0.70638h-4.83901v0.70638h-1.37974v-4.03361h1.37974v2.17854h1.67682v-2.8123h-3.65071v-1.1883h3.65071v-1.30052h-3.12918v-1.14869h5.2153c0.42251,-0.7922 0.82521,-1.74284 1.2081,-2.85191l1.31373,0.52813c-0.32568,0.74819 -0.71738,1.52278 -1.17509,2.32378h1.22791v1.14869zM58.95409,66.10191v-2.43601h1.41935v2.43601h1.31373v1.31373h-1.31373v2.13233c0.32568,-0.11003 0.70418,-0.24866 1.13548,-0.4159l0.16504,1.24111c-0.51053,0.21565 -0.94404,0.3917 -1.30052,0.52813v4.3901c0,0.3873 -0.07042,0.66897 -0.21125,0.84501c-0.18045,0.22006 -0.53253,0.33008 -1.05626,0.33008c-0.47532,0 -0.91763,-0.04401 -1.32693,-0.13203l-0.27067,-1.37975c0.52813,0.07922 0.91103,0.11883 1.14869,0.11883c0.13643,0 0.22006,-0.02861 0.25086,-0.08582c0.03081,-0.04841 0.04621,-0.13203 0.04621,-0.25086v-3.32063c-0.44891,0.14964 -0.90443,0.29267 -1.36654,0.42911l-0.4027,-1.35994c0.74379,-0.18925 1.30273,-0.34108 1.67682,-0.45551c0.03081,-0.0088 0.06162,-0.0176 0.09242,-0.02641v-2.58785h-1.57779v-1.31373zM61.4033,64.42509c2.73748,-0.12323 5.17129,-0.3851 7.30142,-0.7856l0.89122,1.09587c-2.45141,0.43571 -5.01065,0.73278 -7.67772,0.89122zM62.92828,68.12861c-0.22006,-0.75699 -0.48632,-1.44136 -0.7988,-2.05311l1.2213,-0.4093c0.36969,0.71738 0.64916,1.39295 0.83841,2.02671zM65.37749,67.97678c-0.16724,-0.75259 -0.42911,-1.45456 -0.7856,-2.10592l1.22791,-0.4093c0.36529,0.64256 0.64916,1.35554 0.85161,2.13893zM73.62295,63.96298h1.45896v3.72993c1.04746,-1.08707 1.88587,-1.83306 2.51523,-2.23796c0.58535,-0.37849 1.1927,-0.56774 1.82205,-0.56774c0.63376,0 1.14429,0.17825 1.53158,0.53473c0.51053,0.47532 0.76579,1.09807 0.76579,1.86827c0,0.20245 -0.02641,0.47092 -0.07922,0.8054c-0.3873,2.46021 -0.58094,4.16344 -0.58094,5.10968c0,0.4049 0.10343,0.60735 0.31028,0.60735c0.13203,0 0.30588,-0.07482 0.52153,-0.22446c0.45331,-0.31248 0.91103,-0.82521 1.37314,-1.53818l0.54134,1.51178c-0.28167,0.44891 -0.63156,0.84721 -1.04966,1.1949c-0.48412,0.4049 -1.00125,0.60735 -1.55139,0.60735c-0.52373,0 -0.93083,-0.18265 -1.2213,-0.54794c-0.24646,-0.31248 -0.36969,-0.83401 -0.36969,-1.56459c0,-0.55454 0.07262,-1.38855 0.21786,-2.50202c0.18485,-1.39955 0.30808,-2.43821 0.36969,-3.11598c0.0088,-0.11003 0.01321,-0.20245 0.01321,-0.27727c0,-0.3873 -0.08142,-0.68437 -0.24426,-0.89122c-0.15404,-0.19805 -0.36749,-0.29707 -0.64036,-0.29707c-0.91983,0 -2.33478,1.22571 -4.24486,3.67712v6.23196h-1.45896v-4.56834c-0.73498,1.02986 -1.41275,2.0025 -2.03331,2.91793l-0.68657,-1.56459c1.04306,-1.26311 1.94969,-2.46682 2.71988,-3.6111v-1.67682h-2.31718v-1.32693h2.31718zM93.81739,72.5319c0.33448,0.55894 0.73278,1.02766 1.1949,1.40615c0.59855,0.48412 1.35774,0.90443 2.27757,1.26091l-0.7988,1.31373c-1.64161,-0.68217 -2.83871,-1.82646 -3.5913,-3.43286c-0.28607,0.84061 -0.73938,1.56239 -1.35994,2.16534c-0.55894,0.54133 -1.30933,1.01225 -2.25116,1.41275l-0.91763,-1.16189c1.08267,-0.35209 1.90347,-0.8076 2.46241,-1.36654c0.47092,-0.47092 0.82081,-1.00345 1.04966,-1.5976h-2.55484v-3.55169h2.7991v-1.10908h-1.43256v-0.58755c-0.47532,0.4137 -1.00345,0.77679 -1.5844,1.08927l-0.52153,-0.69977h-1.09587v1.12888c0.57654,0.48412 1.13328,1.02105 1.67022,1.6108l-0.69977,1.25431c-0.31688,-0.46212 -0.64036,-0.90663 -0.97044,-1.33353v6.17914h-1.35334v-5.92828c-0.43571,1.24991 -0.90002,2.30618 -1.39295,3.16879l-0.58095,-1.54479c0.8098,-1.35994 1.42596,-2.87172 1.84846,-4.53533h-1.63061v-1.28732h1.75604v-2.71988h1.35334v2.71988h1.17509v0.77239c1.40395,-0.82301 2.47562,-1.9871 3.215,-3.49227h1.49857c0.66457,1.03426 1.50518,1.89907 2.52183,2.59445c0.44011,0.29927 0.95284,0.59855 1.53818,0.89782l-0.7988,1.13548c-0.61175,-0.33008 -1.1773,-0.68877 -1.69663,-1.07607v0.65356h-1.47877v1.10908h2.85191v3.55169zM92.15378,70.02329h-1.55139v1.45236h1.55139zM93.4411,70.02329v1.45236h1.591v-1.45236zM91.26916,66.73566h3.09617c-0.62496,-0.54574 -1.1905,-1.1905 -1.69662,-1.93428c-0.36529,0.69097 -0.83181,1.33573 -1.39955,1.93428zM105.01379,68.14182h3.2216v-3.28762h1.47217v4.60135h-4.69377v4.87862h3.63751v-3.04336h1.49857v5.2219h-1.49857v-0.83841h-8.66797v0.83841h-1.48537v-5.2219h1.48537v3.04336h3.55829v-4.87862h-4.60795v-4.60135h1.47217v3.28762h3.13578v-4.47592h1.47217zM111.8597,65.27008c4.04901,-0.06161 7.87577,-0.16504 11.48026,-0.31028l0.07926,1.31373c-1.5888,0.07922 -2.8255,0.32128 -3.71013,0.72618c-0.84501,0.3873 -1.52278,0.92423 -2.03331,1.6108c-0.58095,0.77899 -0.87142,1.64601 -0.87142,2.60105c0,0.95064 0.33008,1.66362 0.99025,2.13893c0.75699,0.54134 1.91888,0.91323 3.48567,1.11568l-0.31028,1.48537c-2.04211,-0.27287 -3.47907,-0.801 -4.31087,-1.5844c-0.89342,-0.83621 -1.34013,-1.87487 -1.34013,-3.11598c0,-1.12668 0.4049,-2.17854 1.2147,-3.15559c0.58975,-0.71738 1.39735,-1.29392 2.4228,-1.72963c-1.81765,0.06162 -4.16123,0.16504 -7.03075,0.31028zM121.45849,70.96733c-0.25967,-0.69097 -0.69757,-1.47437 -1.31372,-2.35019l1.02985,-0.3829c0.55014,0.75699 0.99245,1.53158 1.32693,2.32378zM123.24094,70.27415c-0.31248,-0.8098 -0.74819,-1.5976 -1.30713,-2.36339l0.98365,-0.34989c0.51492,0.62496 0.95283,1.38195 1.31373,2.27097zM132.76712,67.39583c0.30808,0.15844 0.66236,0.34769 1.06286,0.56774l-0.83841,0.67997h3.97419l0.74599,0.74599c-0.99024,1.49197 -1.97829,2.71768 -2.96414,3.67712l-1.34014,-0.7856c0.86702,-0.7922 1.56239,-1.57999 2.08612,-2.36339h-3.28761v5.17569c0,0.59855 -0.14744,0.98144 -0.44231,1.14869c-0.19805,0.11443 -0.56774,0.17164 -1.10907,0.17164c-0.70858,0 -1.48977,-0.04401 -2.34359,-0.13203l-0.32348,-1.47217c0.823,0.13203 1.55359,0.19805 2.19175,0.19805c0.24206,0 0.39169,-0.03961 0.44891,-0.11883c0.04403,-0.06602 0.06604,-0.18705 0.06604,-0.36309v-4.60795h-5.53218v-1.27412h7.15618c-1.48757,-0.85381 -2.97514,-1.57559 -4.46271,-2.16534l1.06947,-0.85161c0.99905,0.4005 1.88147,0.79 2.64726,1.16849c0.67777,-0.46212 1.27192,-0.91543 1.78245,-1.35994h-7.05717v-1.25431h8.97824l0.812,0.7922c-1.15309,0.92863 -2.25996,1.73623 -3.32063,2.4228zM146.28069,64.19404v9.05746h-4.14584v-9.05746zM143.32315,65.36912v1.48537h1.79565v-1.48537zM143.32315,67.92397v1.48537h1.79565v-1.48537zM143.32315,70.42598v1.66361h1.79565v-1.66361zM140.56366,66.66965c-0.51492,-0.69537 -1.13328,-1.34894 -1.85506,-1.96069l0.99025,-0.95064c0.67777,0.49292 1.31373,1.12008 1.90788,1.88147zM140.20058,70.0497c-0.71738,-0.90223 -1.35334,-1.5976 -1.90788,-2.08612l1.01665,-0.97044c0.60295,0.48852 1.25211,1.15969 1.94748,2.0135zM138.39833,75.49604c0.77459,-1.24111 1.48757,-2.82771 2.13893,-4.75979l1.12228,0.77239c-0.51053,1.78244 -1.1949,3.47247 -2.05311,5.07007zM145.83838,76.21564c-0.31248,-0.84941 -0.72398,-1.63941 -1.23451,-2.36999l1.00345,-0.56774c0.54133,0.63816 1.00565,1.36874 1.39295,2.19175zM147.18512,64.68256h1.31373v8.50292h-1.31373zM141.29644,75.62809c0.66017,-0.62936 1.14649,-1.38635 1.45897,-2.27097l1.14869,0.61395c-0.44011,1.11788 -0.95944,1.95409 -1.55799,2.50863zM149.5155,63.83095h1.36654v11.30202c0,0.57214 -0.17604,0.93743 -0.52813,1.09587c-0.20245,0.08802 -0.51273,0.13203 -0.93083,0.13203c-0.58535,0 -1.11788,-0.03521 -1.5976,-0.10563l-0.23106,-1.34013c0.68657,0.07042 1.2015,0.10563 1.54478,0.10563c0.17605,0 0.28607,-0.03521 0.33008,-0.10563c0.0308,-0.05721 0.0462,-0.16944 0.0462,-0.33668zM160.7251,72.57813v3.93458h-1.40615v-3.89497c-0.54133,0.85381 -1.15749,1.56239 -1.84847,2.12573c-0.46651,0.3829 -1.03205,0.74379 -1.69662,1.08267l-0.91763,-1.16849c0.84501,-0.33008 1.57339,-0.73938 2.18515,-1.22791c0.61616,-0.49732 1.1707,-1.12888 1.66362,-1.89467h-3.14238v-1.2147h3.75634v-1.26091h1.40615v1.26091h3.90818v1.2147h-3.26782c0.93744,1.16629 2.15654,2.06412 3.65731,2.69347l-0.97044,1.29392c-1.45237,-0.85821 -2.56145,-1.83966 -3.32724,-2.94434zM161.65593,65.44835v2.13893c0,0.18925 0.03081,0.31248 0.09242,0.36969c0.05284,0.04841 0.19588,0.07262 0.42911,0.07262c0.33449,0 0.53034,-0.022 0.58755,-0.06601c0.13643,-0.10563 0.21345,-0.45331 0.23106,-1.04306l1.28072,0.34989c-0.0308,0.82301 -0.16724,1.34894 -0.4093,1.57779c-0.23766,0.22886 -0.81861,0.34329 -1.74284,0.34329c-0.61175,0 -1.04966,-0.06162 -1.31372,-0.18485c-0.33008,-0.14964 -0.49512,-0.4159 -0.49512,-0.7988v-2.75949h-3.28102v1.72963h-1.34014v-2.90473h8.77359v2.35019h-1.35334v-1.17509zM154.34131,66.78848c-0.57654,-0.77899 -1.23891,-1.48537 -1.9871,-2.11913l0.97044,-0.93743c0.74818,0.55014 1.44356,1.2213 2.08612,2.0135zM153.82638,70.18173c-0.63376,-0.8098 -1.30933,-1.51618 -2.0267,-2.11913l1.00345,-0.99025c0.74819,0.55014 1.44576,1.23451 2.09273,2.05311zM152.08354,75.48284c0.74379,-1.14429 1.41496,-2.61865 2.0135,-4.4231l1.18829,0.77239c-0.45771,1.63281 -1.12008,3.1886 -1.98709,4.66736zM155.55601,68.49171c0.61175,-0.18045 1.10028,-0.4071 1.46556,-0.67997c0.66016,-0.48852 1.07387,-1.2257 1.24111,-2.21155l1.25432,0.33668c-0.21565,0.7878 -0.47092,1.40835 -0.76579,1.86167c-0.49292,0.74819 -1.28732,1.33133 -2.38319,1.74944zM165.96681,66.27355h5.30112c-0.28607,-0.75259 -0.54794,-1.50077 -0.7856,-2.24456l1.44576,-0.09242c0.22886,0.7834 0.50393,1.56239 0.82521,2.33698h4.87862v1.35334h-4.25807c0.56774,1.17509 1.27852,2.4008 2.13233,3.67712l-1.38634,0.66016c-0.94183,-1.42596 -1.71423,-2.87172 -2.31718,-4.33728h-5.83585zM175.5656,76.01099c-0.87582,0.04841 -1.65041,0.07262 -2.32378,0.07262c-1.83086,0 -3.1798,-0.14304 -4.04681,-0.42911c-1.56679,-0.51053 -2.35019,-1.47437 -2.35019,-2.89152c0,-0.87142 0.27067,-1.57339 0.812,-2.10592l1.24111,0.67337c-0.36089,0.35649 -0.54133,0.82301 -0.54133,1.39955c0,0.73498 0.3961,1.24991 1.18829,1.54479c0.69978,0.25967 1.87047,0.3895 3.51208,0.3895c0.69537,0 1.47877,-0.03301 2.35018,-0.09902zM182.08142,68.59731c0.34329,0 0.65357,0.11443 0.93084,0.34329c0.36529,0.29928 0.54793,0.68217 0.54793,1.14869c0,0.28607 -0.08142,0.55234 -0.24426,0.7988c-0.29488,0.45771 -0.71298,0.68657 -1.25432,0.68657c-0.23766,0 -0.46432,-0.05721 -0.67997,-0.17164c-0.17164,-0.08802 -0.31688,-0.20465 -0.43571,-0.34989c-0.24206,-0.28607 -0.36309,-0.61175 -0.36309,-0.97704c0,-0.51053 0.21345,-0.91543 0.64036,-1.2147c0.25526,-0.17604 0.54133,-0.26407 0.85821,-0.26407zM186.54414,64.60994h2.63406l2.15213,4.55514c0.33009,0.70418 0.61396,1.50298 0.85162,2.3964h0.05281c0.23326,-0.88462 0.51714,-1.68342 0.85162,-2.3964l2.15213,-4.55514h2.63406v10.95213h-1.70323v-5.71703c0,-1.78685 0.02642,-3.08517 0.07926,-3.89497h-0.06604c-0.4049,1.07387 -0.7966,2.03771 -1.1751,2.89152l-2.15213,4.88522h-1.29392l-2.15213,-4.88522c-0.44451,-1.01225 -0.83621,-1.97609 -1.1751,-2.89152h-0.06604c0.05284,0.84061 0.07926,2.13893 0.07926,3.89497v5.71703h-1.70323zM200.45382,65.52097h3.55829c0.3917,-0.62496 0.68877,-1.12888 0.89122,-1.51178l1.47217,0.21125c-0.13203,0.23766 -0.36529,0.62496 -0.69978,1.16189l-0.08582,0.13863h4.65416v1.30052h-5.53219c-0.57654,0.7922 -1.12668,1.47877 -1.65041,2.05971c0.83181,-0.49732 1.591,-0.74599 2.27757,-0.74599c1.06507,0 1.76265,0.53473 2.09273,1.6042c1.12668,-0.37409 2.27537,-0.74379 3.44606,-1.10908l0.56774,1.28072l-0.23106,0.06601l-0.65356,0.17164c-1.23231,0.33448 -2.21815,0.62055 -2.95754,0.85821c0.05284,0.57214 0.09025,1.31153 0.11223,2.21815l-1.44576,0.07922c-0.00446,-0.52373 -0.01328,-1.09147 -0.02645,-1.70323v-0.13203c-2.02451,0.69097 -3.03676,1.38635 -3.03676,2.08612c0,0.36089 0.25967,0.60735 0.779,0.73938c0.50172,0.12763 1.39955,0.19145 2.69347,0.19145c1.19269,0 2.44481,-0.06822 3.75634,-0.20465l0.15844,1.40615c-1.27192,0.09682 -2.59005,0.14524 -3.95439,0.14524c-1.68122,0 -2.87611,-0.12763 -3.5847,-0.38289c-0.87582,-0.31688 -1.31372,-0.88682 -1.31372,-1.70983c0,-0.69537 0.31028,-1.30933 0.93083,-1.84186c0.64257,-0.55014 1.77365,-1.11788 3.39325,-1.70323c-0.08802,-0.33888 -0.20465,-0.57654 -0.34989,-0.71298c-0.16284,-0.15404 -0.3785,-0.23106 -0.64697,-0.23106c-0.43571,0 -0.98364,0.16504 -1.64381,0.49512c-0.8142,0.4049 -1.68782,1.01445 -2.62086,1.82866l-0.87802,-1.00345c1.36875,-1.27192 2.44042,-2.52183 3.21501,-3.74974h-2.68687z"/><path d="M65.70757,88.61221l0.09242,1.1817c-1.91008,0.67337 -4.03361,1.22791 -6.37059,1.66362l-0.48852,-1.32033c0.4049,-0.06162 0.97704,-0.16064 1.71643,-0.29707v-2.4162c-0.76139,0.3873 -1.66802,0.75479 -2.71988,1.10248l-0.75259,-1.17509c2.11693,-0.57214 3.73213,-1.30272 4.84561,-2.19175h-4.71358v-1.14869h5.65761v-0.99685h-4.27787v-1.10908h4.27787v-0.93083h-4.95124v-1.13548h4.95124v-1.30052h1.44576v1.30052h5.09647v1.13548h-5.09647v0.93083h4.4231v1.10908h-4.4231v0.99685h5.80285v1.14869h-1.57779l0.97704,0.67337c-0.60295,0.58535 -1.44796,1.22571 -2.53503,1.92108l-0.15184,0.09902c0.82741,0.75699 1.94969,1.38195 3.36684,1.87487l-0.89122,1.34013c-1.53598,-0.65136 -2.77049,-1.46997 -3.70352,-2.45581zM63.70727,85.17935c-0.44011,0.51493 -0.97044,0.97704 -1.591,1.38635v2.96414c1.08707,-0.24206 2.17854,-0.52373 3.27442,-0.84501l0.30368,-0.08582c-0.90223,-0.99905 -1.56459,-2.13893 -1.9871,-3.41965zM66.11688,86.98161c0.7834,-0.55894 1.46997,-1.16629 2.05971,-1.82205h-3.12258c0.28167,0.67337 0.63596,1.28072 1.06287,1.82205zM78.09227,84.1627v5.85566c0,0.53253 -0.10783,0.89562 -0.32348,1.08927c-0.20245,0.17604 -0.59415,0.26407 -1.17509,0.26407c-0.66016,0 -1.28732,-0.04181 -1.88147,-0.12543l-0.28387,-1.39295c0.61615,0.10123 1.2059,0.15184 1.76924,0.15184c0.18925,0 0.30808,-0.03301 0.35649,-0.09902c0.03521,-0.05721 0.05281,-0.15184 0.05281,-0.28387v-5.45956h-5.67742v-1.31373h12.72138v1.31373zM72.51387,79.27088h9.54598v1.30052h-9.54598zM70.85026,89.39781c0.95064,-0.99465 1.71643,-2.31718 2.29737,-3.96759l1.36654,0.51493c-0.67337,1.88807 -1.52058,3.37124 -2.54163,4.44951zM82.17869,90.20321c-0.91103,-1.92768 -1.70322,-3.33823 -2.37659,-4.23166l1.24111,-0.73938c0.96824,1.24551 1.79345,2.60105 2.47562,4.06662zM91.23615,78.80876h1.48537v1.82205h3.89497v1.27412h-3.89497v2.82551c0.15404,0.54134 0.23106,1.02326 0.23106,1.44576c0,1.56679 -0.34549,2.71768 -1.03646,3.45266c-0.75259,0.8054 -1.88587,1.36214 -3.39985,1.67022l-0.75259,-1.12228c1.17509,-0.22446 2.04651,-0.54134 2.61425,-0.95064c0.53253,-0.3873 0.89122,-0.91323 1.07607,-1.57779c-0.47092,0.51493 -1.03206,0.77239 -1.68342,0.77239c-0.73058,0 -1.32253,-0.20685 -1.77584,-0.62055c-0.53253,-0.48852 -0.7988,-1.1971 -0.7988,-2.12573c0,-0.48852 0.11663,-0.95944 0.34989,-1.41275c0.15404,-0.29047 0.34328,-0.53253 0.56774,-0.72618c0.51933,-0.44011 1.14208,-0.66016 1.86827,-0.66016c0.46212,0 0.88022,0.11003 1.25431,0.33008v-1.30052h-6.51583v-1.27412h6.51583zM91.28896,85.66128v-0.24426c0,-0.28167 -0.06602,-0.53033 -0.19805,-0.74599c-0.24646,-0.4049 -0.60295,-0.60735 -1.06947,-0.60735c-0.23766,0 -0.45992,0.06602 -0.66677,0.19805c-0.48412,0.30368 -0.72618,0.77019 -0.72618,1.39955c0,0.3961 0.08802,0.73058 0.26407,1.00345c0.24646,0.37849 0.60955,0.56774 1.08927,0.56774c0.43571,0 0.7812,-0.19585 1.03646,-0.58755c0.18045,-0.27727 0.27067,-0.60515 0.27067,-0.98365zM99.39578,79.27088h7.40705l0.70638,1.09587c-2.28857,1.39955 -4.27127,2.67147 -5.94809,3.81575c1.08267,-0.45331 2.16974,-0.67997 3.26121,-0.67997c0.98144,0 1.80005,0.15624 2.45581,0.46872c0.60735,0.29047 1.08047,0.68657 1.41936,1.1883c0.35209,0.53253 0.52813,1.14429 0.52813,1.83526c0,0.96824 -0.33008,1.77804 -0.99025,2.42941c-0.45331,0.45331 -1.03425,0.7966 -1.74283,1.02986c-0.92863,0.30368 -1.94529,0.45551 -3.04996,0.45551c-1.27192,0 -2.20935,-0.23546 -2.8123,-0.70638c-0.47092,-0.36969 -0.70638,-0.86922 -0.70638,-1.49857c0,-0.47532 0.17164,-0.89782 0.51493,-1.26752c0.51933,-0.55894 1.2213,-0.83841 2.10593,-0.83841c0.93743,0 1.68782,0.31468 2.25116,0.94404c0.4093,0.45771 0.70418,1.07167 0.88462,1.84186c1.35554,-0.43131 2.03331,-1.22791 2.03331,-2.3898c0,-0.88022 -0.36749,-1.52938 -1.10248,-1.94749c-0.49292,-0.28167 -1.11788,-0.42251 -1.87487,-0.42251c-1.13108,0 -2.15214,0.15624 -3.06316,0.46872c-0.67337,0.22886 -1.57779,0.7812 -2.71328,1.65701l-0.93083,-1.12228c1.2235,-1.05626 2.61645,-2.12793 4.17884,-3.215c1.07827,-0.74819 2.02891,-1.36214 2.85191,-1.84186h-5.66421zM104.39983,89.64207c-0.31248,-1.24551 -0.92643,-1.86827 -1.84186,-1.86827c-0.50613,0 -0.87142,0.16064 -1.09587,0.48192c-0.10563,0.14524 -0.15844,0.30148 -0.15844,0.46872c0,0.34769 0.24646,0.60955 0.73938,0.7856c0.35649,0.12323 0.83401,0.18485 1.43256,0.18485c0.25526,0 0.56334,-0.01761 0.92423,-0.05281z"/></g></g><path d="M240.64994,118.19106c0.4875,0.74885 0.87953,1.58814 1.17604,2.51792l-1.13081,0.32524c-0.28144,-0.94988 -0.66843,-1.80426 -1.16096,-2.56316l1.11572,-0.28002zM65.08887,118.42583v3.70042c0,2.19124 0.75028,4.24177 2.25299,6.15157c1.02527,1.30671 2.4411,2.37217 4.24537,3.1964l-1.13942,1.55297c-3.11599,-1.64343 -5.13779,-3.90503 -6.06757,-6.78482c-0.40708,1.64846 -1.02885,2.97886 -1.86313,3.98905c-0.975,1.17603 -2.39731,2.11227 -4.2669,2.81086l-1.10711,-1.43236c2.11586,-0.70361 3.64874,-1.7741 4.5986,-3.21148c0.59305,-0.89962 1.03173,-1.99165 1.3182,-3.27826c0.21107,-0.93982 0.31661,-1.89472 0.31661,-2.86471v-3.82966zM113.50881,118.42583v0.95634h3.76934v1.22127h-3.76934v0.89818h-1.55943v-0.89818h-3.61211v-1.22127h3.61211v-0.95634zM126.84583,118.42582v3.70042c0,2.19124 0.75028,4.24177 2.25299,6.15157c1.02526,1.30671 2.4411,2.37217 4.24536,3.1964l-1.1394,1.55298c-3.11599,-1.64343 -5.1378,-3.90503 -6.06758,-6.78482c-0.40709,1.64846 -1.02885,2.97886 -1.86314,3.98905c-0.975,1.17603 -2.3973,2.11227 -4.26689,2.81086l-1.10711,-1.43236c2.11586,-0.70361 3.64872,-1.7741 4.5986,-3.21148c0.59305,-0.89962 1.03173,-1.99165 1.3182,-3.27826c0.21107,-0.93982 0.3166,-1.89472 0.3166,-2.86471v-3.82966zM137.55078,118.42583v2.28315l0.72371,-0.60309c0.43724,0.7589 0.78404,1.49122 1.04033,2.19483l-1.02526,1.01665c-0.26637,-0.84937 -0.51263,-1.52281 -0.73879,-2.02037v11.79914h-1.57666v-14.6703zM144.49284,118.42582v1.00157h3.90503v1.13081h-3.90503v0.72371h3.37087v1.07911h-3.37087v0.74526h4.40259v1.2062h-10.16216v-1.20619h4.20013v-0.74526h-3.27179v-1.0791h3.27179v-0.72371h-3.71765v-1.13081h3.71765v-1.00157zM154.19621,118.42582v1.57451h2.34346v1.32681h-2.34346v1.29665h2.6687v1.34189h-0.89819c-0.16083,0.59807 -0.37693,1.23132 -0.64832,1.89975h1.45604v1.31173h-2.57824v1.39574h2.47916v1.34189h-2.47916v3.18133h-1.57666v-3.18133h-2.66009v-1.34189h2.66009v-1.39574h-2.7807v-1.31173h1.38712c-0.16082,-0.66843 -0.35682,-1.30168 -0.58802,-1.89975h-1.10926v-1.34188h3.09087v-1.29665h-2.45762v-1.32681h2.45762v-1.57452zM219.13452,118.42583v4.30352h5.44293v1.5465h-5.44293v6.30235h6.88174v1.57451h-14.6703v-1.57451h5.96418v-12.15238zM191.35335,118.44084v1.37204h3.67242v1.32682h-3.67242v1.07049h3.24164v1.29666h-7.82516v-1.29666h3.05425v-1.07049h-3.58196v-1.32682h3.58196v-1.37204zM80.5281,118.57655v11.36834h3.7995v-8.29256h1.71021v11.3145h-1.71021v-1.38712h-9.2209v1.38712h-1.69513v-11.3145h1.69513v8.29256h3.70904v-11.36834zM238.93759,118.80919c0.47745,0.81921 0.85799,1.65348 1.13942,2.50285l-1.12434,0.32524c-0.22616,-0.80413 -0.58801,-1.64846 -1.08557,-2.533l1.07049,-0.2951zM173.10308,119.05914c-0.15077,0.2714 -0.41714,0.71367 -0.7991,1.32681l-0.09907,0.15722h5.31585v1.4862h-6.31742c-0.65838,0.90465 -1.28661,1.68867 -1.88468,2.35207c0.94988,-0.56794 1.81575,-0.85294 2.59978,-0.85294c1.21624,0 2.01393,0.61171 2.39084,1.83297c1.28661,-0.42719 2.59833,-0.84935 3.93519,-1.2665l0.64833,1.46251l-0.26492,0.0754l-0.74525,0.19602c-1.40722,0.38196 -2.533,0.70865 -3.37734,0.98003c0.06032,0.65335 0.10208,1.49769 0.12709,2.53301l-1.6499,0.09045c-0.00501,-0.59807 -0.01501,-1.2464 -0.03001,-1.94499v-0.15076c-2.31187,0.78906 -3.4678,1.58313 -3.4678,2.38223c0,0.41212 0.29652,0.69357 0.88957,0.84434c0.57294,0.14571 1.59821,0.21753 3.07578,0.21753c1.362,0 2.79076,-0.07681 4.28844,-0.23262l0.18094,1.60466c-1.45246,0.11058 -2.9566,0.16585 -4.5146,0.16585c-1.91986,0 -3.28543,-0.14573 -4.09458,-0.43725c-1.00013,-0.36186 -1.49912,-1.01162 -1.49912,-1.95145c0,-0.79408 0.35325,-1.49625 1.06188,-2.10437c0.73377,-0.62823 2.02539,-1.27655 3.87489,-1.94499c-0.10049,-0.38698 -0.23262,-0.65837 -0.39847,-0.81418c-0.18596,-0.17589 -0.43223,-0.26276 -0.7388,-0.26276c-0.49756,0 -1.12435,0.18741 -1.87821,0.56432c-0.92978,0.46237 -1.92631,1.15952 -2.99178,2.0893l-1.00372,-1.14588c1.56303,-1.45246 2.78788,-2.87978 3.67242,-4.28198h-3.06933v-1.4862h4.06444c0.44729,-0.71367 0.78544,-1.28804 1.01665,-1.72528zM163.64114,118.96859v3.52811c0,0.43725 -0.0804,0.74524 -0.24125,0.92618c-0.19098,0.21608 -0.58945,0.32524 -1.19758,0.32524c-0.59304,0 -1.18608,-0.02514 -1.77913,-0.0754l-0.25634,-1.35697c0.83428,0.09049 1.36343,0.13572 1.58958,0.13572c0.23624,0 0.35541,-0.10408 0.35541,-0.31015v-1.81573h-3.30195v4.37891h4.27336l0.89818,0.76895c-0.2714,1.5982 -0.76751,3.02552 -1.4862,4.28197l-0.08186,0.15076c0.55284,0.63828 1.24281,1.22127 2.07206,1.74898l-0.84433,1.41081c-0.79408,-0.51263 -1.50271,-1.12577 -2.12591,-1.83944c-0.53776,0.68351 -1.1423,1.32681 -1.81575,1.92991l-0.88957,-1.23635v1.17611h-1.53142v-14.12751zM185.72949,118.98369v1.2665h-4.55337v-1.2665zM229.95145,119.17968c-0.26134,2.38725 -0.39201,4.66035 -0.39201,6.82144c0,2.19627 0.12063,4.20516 0.36187,6.0245l-1.65851,0.23262c-0.24625,-1.89472 -0.36833,-3.96679 -0.36833,-6.21834c0,-2.38725 0.14073,-4.72425 0.42216,-7.01099zM237.46915,119.02891l0.32311,3.28687h3.07579v1.52928h-2.94656l0.03001,1.37204c0.0048,0.2463 0.00625,0.41714 0.00625,0.51263c0,2.07565 -0.30657,3.61714 -0.91972,4.6223c-0.48248,0.7991 -1.18249,1.44743 -2.10222,1.94499c-0.25128,0.13569 -0.55785,0.28286 -0.91972,0.4437l-1.02526,-1.29666c1.2464,-0.56289 2.10725,-1.24783 2.5847,-2.05698c0.46739,-0.78905 0.70217,-2.02396 0.70217,-3.70257c0,-0.04524 -0.00374,-0.22618 -0.00875,-0.54279l-0.03668,-1.29665h-4.954v-1.52928h4.89369l-0.06031,-3.28687zM252.84755,119.26153l0.80557,1.25142c-2.61342,1.5982 -4.87646,3.05065 -6.79129,4.35736c1.23634,-0.51766 2.47772,-0.7754 3.72411,-0.7754c1.12075,0 2.05555,0.17733 2.80439,0.53417c0.69356,0.3317 1.23278,0.78402 1.61975,1.35697c0.40207,0.60812 0.60309,1.3067 0.60309,2.09575c0,1.10568 -0.37693,2.03043 -1.1308,2.77424c-0.51766,0.51766 -1.18106,0.90965 -1.99021,1.17603c-1.06044,0.34677 -2.22141,0.52125 -3.48288,0.52125c-1.45246,0 -2.52295,-0.26995 -3.21148,-0.80772c-0.53777,-0.42217 -0.80556,-0.99152 -0.80556,-1.71021c0,-0.54279 0.19601,-1.02527 0.58802,-1.44743c0.59304,-0.6383 1.39358,-0.95849 2.40376,-0.95849c1.07049,0 1.92847,0.36043 2.57178,1.07912c0.4674,0.52268 0.80411,1.2227 1.01019,2.10222c1.54794,-0.49253 2.32192,-1.4022 2.32192,-2.72901c0,-1.00516 -0.42073,-1.74538 -1.26004,-2.22284c-0.56289,-0.32163 -1.27656,-0.48248 -2.14099,-0.48248c-1.29163,0 -2.45761,0.17734 -3.49795,0.53417c-0.76894,0.26134 -1.80067,0.89316 -3.09732,1.89329l-1.06404,-1.28158c1.39718,-1.20619 2.98892,-2.43104 4.77307,-3.67242c1.23132,-0.85438 2.31689,-1.5544 3.25671,-2.10222h-6.4682v-1.4862zM99.90254,120.80803c1.48764,1.14086 2.23145,2.75558 2.23145,4.84631c0,3.50298 -1.77267,5.72438 -5.31585,6.6642l-0.88957,-1.5142c2.95014,-0.74382 4.4263,-2.43608 4.4263,-5.07462c0,-1.15091 -0.29653,-2.141 -0.88957,-2.97025c-0.6634,-0.9348 -1.67359,-1.53428 -3.03055,-1.80066c-0.29652,2.33197 -0.70217,4.24177 -1.2148,5.72941c-0.3518,1.04034 -0.78905,2.02181 -1.31173,2.94656c-0.75387,1.31676 -1.60969,1.97513 -2.56962,1.97513c-0.71367,0 -1.3505,-0.32165 -1.90837,-0.96495c-0.35684,-0.40708 -0.64472,-0.90607 -0.86588,-1.49912c-0.29148,-0.76895 -0.43724,-1.59677 -0.43724,-2.48131c0,-1.43235 0.39344,-2.75055 1.1825,-3.95674c0.7991,-1.23132 1.838,-2.1259 3.11455,-2.68377c0.92978,-0.4071 1.95001,-0.61171 3.06071,-0.61171c1.7339,0 3.20646,0.46596 4.41768,1.39574zM203.72531,119.50273l1.05541,0.89818c-0.49756,1.74395 -0.90965,3.05568 -1.23634,3.9352c1.25143,0.21107 2.40376,0.55282 3.45918,1.02526c0.06044,-0.64833 0.09045,-1.28517 0.09045,-1.90837c0,-0.3317 -0.01001,-0.72012 -0.03001,-1.16742l1.65205,0.17231c-0.00501,1.43738 -0.06389,2.64715 -0.17447,3.62718c0.6232,0.32165 1.27654,0.70002 1.96005,1.13726l-0.64833,1.60682c-0.48247,-0.3518 -1.00516,-0.70218 -1.56805,-1.04896c-0.38699,1.49266 -1.00516,2.65363 -1.85452,3.48288c-0.6031,0.59305 -1.42732,1.11573 -2.47269,1.56805l-0.94126,-1.2665c1.23132,-0.52771 2.14099,-1.20117 2.72901,-2.02038c0.46238,-0.65335 0.80415,-1.50773 1.02526,-2.56315c-1.23132,-0.61817 -2.47772,-1.03531 -3.73919,-1.25142c-0.81921,2.24151 -1.642,3.94022 -2.46623,5.09615c-0.62822,0.87449 -1.33327,1.31173 -2.1173,1.31173c-0.75889,0 -1.3469,-0.36186 -1.76405,-1.08558c-0.31663,-0.55284 -0.47602,-1.21122 -0.47602,-1.97513c0,-0.94485 0.24483,-1.78919 0.73234,-2.533c0.57797,-0.88454 1.46753,-1.52927 2.66869,-1.93636c0.69357,-0.23116 1.46898,-0.35692 2.32838,-0.37692c0.46238,-1.20619 0.81778,-2.28674 1.06403,-3.24164h-5.17154v-1.4862zM107.63724,119.63201v10.40337h-2.68377v1.22127h-1.38712v-11.62466zM71.00565,121.41759c-0.82423,1.78415 -1.7339,3.37589 -2.72901,4.77307l-1.5142,-0.76894c0.95992,-1.35697 1.80425,-2.94369 2.533,-4.758zM132.76263,121.41759c-0.82423,1.78415 -1.73389,3.37589 -2.72901,4.77307l-1.5142,-0.76894c0.95993,-1.35697 1.80425,-2.94369 2.533,-4.758zM92.56631,121.6136c-0.38196,0.24628 -0.76035,0.57297 -1.13726,0.98003c-1.04537,1.15593 -1.56805,2.49639 -1.56805,4.0192c0,1.1107 0.22114,1.98016 0.6634,2.60839c0.2714,0.387 0.53919,0.5794 0.80557,0.5794c0.36186,0 0.76895,-0.39848 1.22127,-1.19758c1.10568,-1.94499 1.85452,-4.51315 2.24653,-7.70454c-0.88957,0.10051 -1.63339,0.33814 -2.23145,0.7151zM111.08135,120.91359v0.9111h3.32564v-0.9111h1.40219v0.91102h2.13238v1.25142h-2.13238v0.83787h-1.40219v-0.83787h-3.32564v0.83787h-1.38712v-0.83787h-1.68006v-1.25142h1.68006v-0.9111zM104.95347,128.53406h1.31173v-7.43962h-1.31173zM61.23551,121.5166c-0.40206,2.14099 -1.04537,3.94525 -1.92991,5.41278l-1.57451,-0.98864c0.8192,-1.24138 1.41367,-2.8245 1.7856,-4.74938zM122.99248,121.5166c-0.40206,2.14099 -1.04537,3.94525 -1.9299,5.41278l-1.57451,-0.98864c0.8192,-1.24138 1.41367,-2.8245 1.78559,-4.74938zM186.34766,121.19135v1.35697h-5.88019v-1.35697zM135.65103,121.74275c-0.0603,2.15104 -0.23619,3.89642 -0.52771,5.23832l-1.28158,-0.68494c0.22615,-1.04537 0.3884,-2.3973 0.48894,-4.05581l0.03877,-0.61818zM185.72949,123.50681v1.25142h-4.55337v-1.25142zM152.6497,125.86543h1.25142c0.26136,-0.6433 0.46092,-1.27655 0.59663,-1.89975h-2.3973c0.1709,0.47745 0.35325,1.1107 0.54925,1.89975zM117.01536,124.18538v6.46818h-1.98375c1.10065,0.38698 2.14099,0.85941 3.12102,1.41728l-1.07695,1.1308l-0.31015,-0.18953c-1.06045,-0.63325 -2.07709,-1.15736 -3.05209,-1.57451l0.88095,-0.78402h-3.7155l0.88095,0.7388c-1.21624,0.78403 -2.50787,1.38211 -3.87489,1.79421l-0.97141,-1.2665c1.37205,-0.27643 2.54448,-0.69859 3.51949,-1.2665h-1.96006v-6.46819zM194.96546,124.53862v3.16626h-1.51635v-1.88467h-5.45802v2.00529h-1.46896v-3.28687zM147.62891,125.11157v6.61897c0,0.46237 -0.11058,0.79912 -0.3317,1.01019c-0.2161,0.20607 -0.58442,0.31014 -1.10711,0.31014c-0.61818,0 -1.25502,-0.04381 -1.90837,-0.12925l-0.21753,-1.35697c0.66843,0.08061 1.19758,0.12063 1.58959,0.12063c0.20107,0 0.32185,-0.05027 0.36187,-0.15076c0.02501,-0.06027 0.03877,-0.15217 0.03877,-0.27784v-0.97357h-4.62876v2.81301h-1.57667v-7.98455zM110.01947,125.95592h5.43431v-0.75386h-5.43431zM201.3949,125.66945c-0.64834,0.03518 -1.2026,0.15934 -1.66497,0.37045c-0.72371,0.32165 -1.25646,0.81418 -1.5982,1.47758c-0.24124,0.4674 -0.36187,0.96495 -0.36187,1.49267c0,0.42217 0.08187,0.78905 0.24771,1.10065c0.12567,0.2463 0.27643,0.36833 0.45232,0.36833c0.70362,0 1.67862,-1.60323 2.92502,-4.80969zM185.72949,125.71467v1.22127h-4.55337v-1.22127zM158.80989,131.76071c0.61818,-0.42217 1.21265,-1.01522 1.7856,-1.77914c-0.76895,-1.18609 -1.30814,-2.4928 -1.61974,-3.92012h-0.16585zM161.43336,128.6483c0.4473,-0.86443 0.73877,-1.72743 0.87449,-2.58684h-1.94499c0.24628,0.96495 0.60311,1.82795 1.0705,2.58684zM141.42566,127.10179h4.62876v-0.88095h-4.62876zM192.40232,126.6581v4.46937c0,0.14075 0.03518,0.22633 0.10554,0.25634c0.11558,0.05039 0.24625,0.0754 0.39201,0.0754c0.33172,0 0.54779,-0.04669 0.64833,-0.14218c0.13567,-0.12063 0.23116,-0.79407 0.28647,-2.02036l1.36343,0.47386c-0.04525,1.34691 -0.18739,2.20129 -0.42863,2.56316c-0.15078,0.22615 -0.39202,0.38053 -0.72371,0.46094c-0.28647,0.06523 -0.66843,0.09691 -1.14588,0.09691c-0.82926,0 -1.36557,-0.08544 -1.60682,-0.25634c-0.2312,-0.16586 -0.34678,-0.47243 -0.34678,-0.91972v-5.05739zM190.03516,126.68789c-0.01501,1.98519 -0.22107,3.36729 -0.61817,4.14628c-0.53776,1.04537 -1.45604,1.83441 -2.7527,2.36715l-0.64832,-0.88957v0.00667h-3.6035v0.77756h-1.48405v-5.19523h5.08754v3.95889c1.00516,-0.35684 1.68865,-0.92834 2.05052,-1.71236c0.28143,-0.60309 0.43232,-1.75544 0.45232,-3.45919zM110.01947,127.76507h5.43431v-0.82064h-5.43431zM141.42566,129.13711h4.62876v-0.92619h-4.62876zM110.01947,129.60451h5.43431v-0.85079h-5.43431zM247.9991,128.97127c-0.57797,0 -0.99513,0.18453 -1.25142,0.55141c-0.12062,0.16587 -0.18093,0.34319 -0.18093,0.53417c0,0.39704 0.28144,0.69715 0.84433,0.89818c0.40708,0.14071 0.95346,0.21107 1.63697,0.21107c0.2915,0 0.64332,-0.02029 1.05541,-0.0603c-0.35683,-1.42229 -1.059,-2.13453 -2.10437,-2.13453zM182.41246,131.03698h2.11945v-1.83944h-2.11945zM211.21673,135.70235c-0.26923,0.87951 -0.58514,1.70877 -0.94772,2.48776v7.78209h-1.20189v-5.63894c-0.31232,0.46668 -0.66124,0.93982 -1.04895,1.41727l-0.57079,-1.20619c0.66771,-0.77182 1.24927,-1.71165 1.74467,-2.81732c0.28719,-0.63899 0.57867,-1.41153 0.87664,-2.31977zM213.60111,135.63773c-0.13998,0.51694 -0.29149,1.01234 -0.45663,1.4862h4.90016v1.06188h-3.28472v1.55082h2.62131v0.99081h-2.62131v1.54011h2.85394v1.01234h-2.85394v2.69238h-1.15881v-7.78639h-0.88311c-0.36976,0.90824 -0.84361,1.72313 -1.42158,2.44469l-0.77972,-0.95849c0.91541,-1.14875 1.56516,-2.56675 1.94929,-4.25398zM202.00858,136.23032c-0.58515,0.14718 -1.22773,0.26492 -1.92775,0.35108v0.59664h2.41239v0.59879h1.22773l0.05385,-2.28315h1.08126l-0.04739,2.28315h2.03976c-0.03589,4.01346 -0.1867,6.44378 -0.45233,7.29099c-0.11487,0.36616 -0.32307,0.59953 -0.62463,0.70002c-0.15436,0.05385 -0.38411,0.07969 -0.68925,0.07969c-0.39847,0 -0.77539,-0.02513 -1.1308,-0.0754l-0.20894,-1.13511c0.41283,0.07886 0.77613,0.11846 1.09203,0.11846c0.25489,0 0.41932,-0.07107 0.4911,-0.21107c0.06819,-0.13641 0.13354,-0.46667 0.19814,-0.99079c0.12925,-1.04106 0.21187,-2.52367 0.24771,-4.44783l0.00667,-0.26921h-1.04034c-0.06102,1.59389 -0.25126,2.91495 -0.57079,3.96319c-0.39129,1.27798 -1.00229,2.33986 -1.83513,3.18348l-0.88311,-0.68494c0.1759,-0.16513 0.31662,-0.31234 0.42432,-0.44155c-1.79492,0.32668 -3.51447,0.57005 -5.15861,0.72802l-0.24125,-1.0188c0.89387,-0.05385 1.7418,-0.11916 2.54592,-0.19815v-0.74956h-2.31545v-0.85079h2.31545v-0.61387h-2.0613v-3.53672h2.0613v-0.59879h-2.48131v-0.84002h2.48132v-0.47817c-0.54207,0.05385 -1.15953,0.10041 -1.85237,0.14001l-0.38771,-0.82926c1.72313,-0.0718 3.26246,-0.25845 4.61583,-0.56001zM195.49317,135.49367c-0.48103,0.55284 -0.86877,1.0626 -1.16311,1.52927c-0.7467,1.19183 -1.12004,2.43034 -1.12004,3.71551c0,1.21336 0.33385,2.38366 1.00156,3.51087c0.3159,0.5313 0.74311,1.10567 1.28158,1.72313h-1.05112c-0.65694,-0.59232 -1.19541,-1.31676 -1.61543,-2.17115c-0.51694,-1.05182 -0.77541,-2.07565 -0.77541,-3.07363c0,-1.13081 0.32596,-2.28243 0.97572,-3.45272c0.39488,-0.70721 0.86586,-1.30025 1.41511,-1.78128zM235.42025,135.49342v1.1782h4.2712v2.5591h-1.21265v-1.56805h-7.25868v1.56805h-1.19974v-2.55885h4.20013v-1.17819zM246.44827,135.49342v1.19973h4.21736v2.49448h-1.16958v0.7151h-3.02624v1.64775h3.68965v1.00156h-3.68965v1.85236c0.60669,0.10049 1.27009,0.15076 1.98806,0.15076h2.79363c-0.17948,0.35898 -0.31232,0.7388 -0.39847,1.13726h-2.40592c-1.45747,0 -2.6091,-0.17521 -3.45272,-0.5234c-0.81849,-0.33745 -1.49338,-0.89387 -2.02468,-1.66928c-0.4236,1.00875 -0.94413,1.84518 -1.56159,2.5093l-0.83356,-1.00156c1.01234,-1.0949 1.64415,-2.5129 1.89544,-4.25397l1.22126,0.18956c-0.11487,0.5672 -0.22615,1.0382 -0.33386,1.41511c0.43437,0.77181 1.07624,1.34261 1.92344,1.71236v-4.16782h-2.98963v-0.7151h-1.16742v-2.49423h4.12474v-1.19973zM253.22233,135.49367c0.65694,0.59592 1.19542,1.31819 1.61543,2.16899c0.51694,1.05182 0.7754,2.07494 0.7754,3.06933c0,1.13439 -0.32668,2.28673 -0.98003,3.45703c-0.39129,0.70361 -0.86156,1.29881 -1.41081,1.78344h-1.04896c0.48104,-0.55283 0.86877,-1.06259 1.16312,-1.52928c0.7467,-1.19183 1.12003,-2.42674 1.12003,-3.70472c0,-1.22055 -0.33385,-2.39444 -1.00157,-3.52165c-0.31232,-0.52412 -0.73952,-1.09849 -1.28158,-1.72313zM228.76035,136.198v1.14804h-3.57118c-0.20104,0.33026 -0.45951,0.70792 -0.77541,1.13511v7.4913h-1.23204v-6.03095c-1.08773,1.1667 -2.37936,2.17617 -3.87274,3.03055l-0.73663,-1.00588c2.29032,-1.25285 4.02063,-2.79291 5.19092,-4.62014h-4.85276v-1.14804zM242.30199,138.87962h7.17253v-1.17389h-7.17253zM235.01102,138.23992c-0.24052,0.53489 -0.47819,1.0267 -0.7151,1.47544h5.80479v1.01234h-2.1496c-0.35539,1.04464 -0.93696,1.96077 -1.74467,2.75054c1.06618,0.43437 2.23218,0.9549 3.4958,1.56158l-0.79695,0.96926c-1.3426,-0.75386 -2.53012,-1.36486 -3.56042,-1.83513c-1.37491,0.95849 -3.04778,1.5659 -5.01861,1.82436l-0.54925,-0.9908c1.69441,-0.16872 3.15548,-0.62105 4.38322,-1.35696c-0.80053,-0.34104 -1.65565,-0.66412 -2.56747,-0.96926l-0.41572,-0.13354c0.38053,-0.51694 0.78258,-1.12363 1.20619,-1.82005h-2.76131v-1.01234h3.34287c0.24411,-0.43797 0.53777,-1.02312 0.87879,-1.75545zM200.08093,138.61684h2.0936v3.53673h-2.0936v0.61386h2.2293v0.85079h-2.2293v0.64186l0.45233,-0.04306c0.60309,-0.06102 1.25357,-0.15076 1.95359,-0.26925c0.67489,-1.23132 1.06618,-2.88625 1.17389,-4.96477l0.01084,-0.14647h-1.19973v-0.81848h-2.39084zM229.10498,141.70124l-0.87234,0.9908c-1.01952,-1.06977 -2.22212,-2.12878 -3.6078,-3.17702l0.84002,-0.81203c1.42876,0.99798 2.64213,1.99669 3.64012,2.99825zM197.88401,140.02765h1.16742v-0.68494h-1.16742zM200.0487,140.02765h1.19973v-0.68494h-1.19973zM197.88401,141.42769h1.16742v-0.73878h-1.16742zM200.0487,141.42769h1.19973v-0.73878h-1.19973zM232.82478,142.2074c0.61387,0.20821 1.35266,0.47671 2.21422,0.80341c0.7431,-0.65335 1.29666,-1.4144 1.66282,-2.28315h-2.95517c-0.36257,0.62104 -0.67058,1.11357 -0.92187,1.47974z" fill="#fff1f1" stroke-width="3.969" stroke-linecap="butt" stroke-linejoin="miter"/></g></g></svg>