<svg version="1.1" xmlns="http://www.w3.org/2000/svg" xmlns:xlink="http://www.w3.org/1999/xlink" width="180" height="40" viewBox="0,0,180,40"><g transform="translate(-150,-160)"><g stroke-miterlimit="10"><path d="M150,160h180v40h-180z" fill="none" stroke="none" stroke-width="0.2" stroke-linecap="round" stroke-linejoin="round"/><path d="M176.92611,174.86182v-0.65971h-4.35546v-0.77416h9.82166v0.77416h-4.42951v0.65971h5.66143v2.27534h-1.06362v-1.54157h-4.5978v2.82735h-1.0367v-2.82735h-4.55068v1.54157h-1.06362v-2.27534zM172.95436,179.62119v2.20129h10.98627v0.77416h-5.23059c0.43532,0.57444 0.93572,1.04791 1.50119,1.4204c0.64177,-0.40391 1.26557,-0.86392 1.87143,-1.38002l0.82801,0.55201c-0.53854,0.43981 -1.17806,0.85943 -1.91855,1.25885c0.81679,0.35454 1.81982,0.62829 3.0091,0.82127l-0.62606,0.89533c-1.75027,-0.3321 -3.12803,-0.89982 -4.13331,-1.70314c-0.61933,-0.49366 -1.16235,-1.11523 -1.62909,-1.8647h-1.83105v2.41671c1.27455,-0.17952 2.33144,-0.35005 3.17067,-0.51162l0.08078,0.76742c-1.65153,0.38595 -3.48033,0.70908 -5.4864,0.96938l-0.30293,-0.92899c0.53406,-0.04936 1.02548,-0.10098 1.47426,-0.15483v-2.55807h-1.77046c-0.03591,0.85718 -0.15483,1.56626 -0.35679,2.12724c-0.184,0.50713 -0.45328,0.96489 -0.80782,1.37328l-0.8684,-0.77416c0.45328,-0.53405 0.7405,-1.12869 0.86167,-1.78392c0.0763,-0.4084 0.11444,-0.89308 0.11444,-1.45406v-3.21106h11.37671v0.74723zM173.14958,176.22837h3.00237v0.67318h-3.00237zM173.14958,177.49395h3.00237v0.67318h-3.00237zM178.71677,176.22837h3.07642v0.67318h-3.07642zM178.71677,177.49395h3.07642v0.67318h-3.07642zM173.91701,180.29437h8.30028v0.76069h-8.30028zM192.17359,174.41079h5.43255v0.88186h-3.17067v1.33289h2.97545v0.85493h-2.97545v2.07339h-5.14308v-2.07339h-2.55134v1.39348c0,2.07788 -0.09874,3.69575 -0.2962,4.85361c-0.15259,0.87962 -0.40839,1.68967 -0.76742,2.43017l-0.92226,-0.71357c0.37698,-0.78986 0.62606,-1.76821 0.74723,-2.93506c0.09873,-0.93796 0.1481,-2.14968 0.1481,-3.63516v-4.46317h5.43255v-1.33963h1.09055zM186.74105,175.29266v1.33289h2.55134v-1.33289zM190.35601,175.29266v1.33289h3.01583v-1.33289zM190.35601,177.48048v1.28578h3.01583v-1.28578zM192.1332,184.45461c-1.35982,0.74499 -3.03828,1.32167 -5.03537,1.73007l-0.5924,-0.94245c1.91183,-0.30517 3.47809,-0.75621 4.69879,-1.35309c-1.11298,-0.77191 -1.99485,-1.61114 -2.64559,-2.51769h-1.04343v-0.89533h8.02428l0.57893,0.52508c-0.69561,1.00528 -1.71661,1.96569 -3.06296,2.8812c1.20274,0.57444 2.73759,1.00977 4.60454,1.30597l-0.65972,0.96937c-1.81309,-0.36352 -3.43545,-0.93123 -4.86707,-1.70314zM189.73669,181.37145c0.58791,0.70011 1.33065,1.33514 2.22822,1.90509l0.14137,0.09425c1.11298,-0.7046 1.92978,-1.37104 2.45037,-1.99934zM201.39613,181.08199v2.76676c0,0.40391 0.18176,0.65074 0.54527,0.7405c0.45328,0.1122 1.6448,0.1683 3.57458,0.1683c1.91183,0 3.28286,-0.05161 4.11311,-0.15483c0.34107,-0.04039 0.5565,-0.15034 0.64625,-0.32986c0.12566,-0.24683 0.2042,-0.83698 0.23561,-1.77045l1.08382,0.37024c-0.04937,0.91552 -0.12117,1.52812 -0.21542,1.83778c-0.14361,0.46225 -0.48917,0.74498 -1.0367,0.8482c-0.70011,0.13464 -2.35613,0.20195 -4.96805,0.20195c-2.38754,0 -3.81467,-0.08526 -4.28141,-0.2558c-0.5161,-0.18849 -0.77416,-0.6283 -0.77416,-1.31943v-7.00105c-0.37249,0.28274 -0.73152,0.52956 -1.07709,0.74049l-0.7001,-0.80108c1.66499,-0.9245 3.03154,-2.217 4.09965,-3.87751l0.68664,0.52508h3.97175l0.61933,0.5924c-0.67766,0.94245 -1.34186,1.74353 -1.9926,2.40324h4.40258v4.31507zM201.39613,180.18666h3.33896v-2.49749h-3.33896zM200.83739,176.76692h3.83711c0.6642,-0.6642 1.2364,-1.35983 1.7166,-2.08686h-3.51399c-0.58342,0.73152 -1.26333,1.42714 -2.03973,2.08686zM205.78525,177.68917v2.49749h3.4534v-2.49749zM219.63925,184.25265c1.07259,-0.27376 1.94548,-0.69786 2.61866,-1.27231c0.90206,-0.76743 1.35308,-1.89163 1.35308,-3.37262c0,-0.97386 -0.23337,-1.83104 -0.70011,-2.57154c-0.63727,-1.02323 -1.68743,-1.64256 -3.15047,-1.85797c-0.30966,2.95749 -0.93572,5.34952 -1.87817,7.17608c-0.39942,0.7764 -0.78986,1.33514 -1.17133,1.67621c-0.40839,0.36352 -0.83474,0.54528 -1.27904,0.54528c-0.59688,0 -1.13542,-0.29172 -1.61563,-0.87514c-0.26029,-0.30966 -0.47347,-0.70011 -0.63952,-1.17133c-0.23337,-0.64625 -0.35005,-1.34411 -0.35005,-2.09358c0,-1.28802 0.36127,-2.45934 1.08382,-3.51399c0.71357,-1.05016 1.63133,-1.79739 2.7533,-2.24169c0.76294,-0.30068 1.58421,-0.45102 2.46383,-0.45102c1.3643,0 2.53788,0.34107 3.52072,1.02323c0.85269,0.59688 1.45631,1.39124 1.81085,2.38305c0.21542,0.60137 0.32313,1.24762 0.32313,1.93875c0,2.93506 -1.52138,4.81097 -4.56414,5.62776zM218.74392,175.15129c-1.04567,0.06283 -1.9365,0.37474 -2.67251,0.93572c-1.11748,0.84821 -1.79739,1.94549 -2.03973,3.29184c-0.06283,0.34556 -0.09425,0.68664 -0.09425,1.02323c0,1.05913 0.23113,1.88714 0.69338,2.48403c0.26927,0.34556 0.54752,0.51835 0.83474,0.51835c0.32761,0 0.65523,-0.24459 0.98284,-0.73376c0.53406,-0.80333 1.01425,-1.88715 1.4406,-3.25145c0.35903,-1.14889 0.644,-2.57154 0.85494,-4.26795zM227.77124,174.28289h5.14308l0.72704,0.57894l-0.07405,0.26927c-0.4443,1.57523 -0.79211,2.70842 -1.04343,3.39955c1.01426,0.12566 2.17213,0.46899 3.4736,1.02997c0.05834,-0.63279 0.08752,-1.2768 0.08752,-1.93203c0,-0.24235 -0.00449,-0.54976 -0.01347,-0.92225l1.07035,0.1279c-0.00448,1.27006 -0.05385,2.33592 -0.1481,3.19759c0.56547,0.28723 1.16235,0.62606 1.79065,1.0165l-0.45776,1.05016c-0.54752,-0.36801 -1.04791,-0.6844 -1.50118,-0.94918c-0.22888,0.98284 -0.56099,1.7929 -0.99631,2.43017c-0.60137,0.87962 -1.50119,1.57299 -2.69945,2.08012l-0.63279,-0.82801c1.27904,-0.54752 2.19232,-1.34411 2.73984,-2.38978c0.26927,-0.51162 0.47347,-1.12197 0.61259,-1.83105c-1.2566,-0.63727 -2.47505,-1.0322 -3.65535,-1.18479c-0.78089,2.09582 -1.53709,3.61721 -2.26861,4.56414c-0.54752,0.70011 -1.13319,1.05016 -1.757,1.05016c-0.50712,0 -0.91777,-0.23786 -1.23191,-0.71357c-0.31415,-0.4802 -0.47123,-1.07484 -0.47123,-1.78392c0,-1.03221 0.33659,-1.91407 1.00977,-2.64559c0.87064,-0.94245 2.20578,-1.42714 4.0054,-1.45406c0.38595,-1.02323 0.71132,-2.0891 0.97611,-3.1976h-4.68532zM231.1304,179.37212c-0.39942,0 -0.83474,0.06508 -1.30597,0.19522c-0.78986,0.21991 -1.39123,0.62381 -1.80411,1.21172c-0.35005,0.50264 -0.52508,1.08606 -0.52508,1.75026c0,0.40391 0.07404,0.74499 0.22214,1.02323c0.13464,0.25581 0.30742,0.38371 0.51835,0.38371c0.69113,0 1.65602,-1.52138 2.89467,-4.56414z" fill="#ffffff" stroke="#ffffff" stroke-width="0.25" stroke-linecap="butt" stroke-linejoin="miter"/></g></g></svg>