<svg version="1.1" xmlns="http://www.w3.org/2000/svg" xmlns:xlink="http://www.w3.org/1999/xlink" width="180" height="40" viewBox="0,0,180,40"><g transform="translate(-150,-160)"><g stroke-miterlimit="10"><path d="M150,160h180v40h-180z" fill="none" stroke="none" stroke-width="0.2" stroke-linecap="round" stroke-linejoin="round"/><path d="M173.92268,180.30534c-0.03215,2.89159 -0.14466,4.71604 -0.33754,5.47336c-0.07858,0.30752 -0.20359,0.53701 -0.37504,0.68847c-0.18574,0.15605 -0.46434,0.23408 -0.83581,0.23408c-0.37861,0 -0.77152,-0.03672 -1.17871,-0.11016l-0.16609,-1.03271c0.52506,0.09639 0.94297,0.14458 1.25372,0.14458c0.26789,0 0.43398,-0.11245 0.49827,-0.33735c0.13216,-0.43603 0.23574,-1.80839 0.31075,-4.11707h-1.81092c-0.03929,0.33047 -0.08215,0.65864 -0.12859,0.98452l-0.80366,-0.19277c0.22503,-1.82675 0.36433,-3.44007 0.41791,-4.83997h2.23954v-2.1205h-2.61459v-0.97075h3.40218v4.03445h-2.26097c-0.03215,0.6747 -0.08394,1.39531 -0.15537,2.16181zM176.92838,177.48948l-0.35897,0.03442c-0.66079,0.07344 -1.3823,0.13999 -2.16454,0.19966l-0.23038,-1.01894c0.21431,-0.00459 0.40183,-0.01147 0.56256,-0.02065l0.26253,-0.01377c0.60007,-1.09238 1.11441,-2.19853 1.54303,-3.31844l0.83581,0.28228c-0.46434,1.06025 -0.96618,2.05854 -1.50553,2.99486c1.10013,-0.05049 2.1556,-0.12852 3.16644,-0.23408l0.06429,-0.00688c-0.26074,-0.44062 -0.57864,-0.91796 -0.95368,-1.43202l0.659,-0.44751c0.7608,1.00517 1.37159,1.9828 1.83235,2.9329l-0.66972,0.57832c-0.16788,-0.3626 -0.31432,-0.65634 -0.43934,-0.88125c-0.34647,0.06426 -0.76437,0.12622 -1.25372,0.18589l-0.54649,0.06885v1.58349h2.34134v3.6971h-2.34134v2.53358c0.83224,-0.12852 1.37159,-0.21572 1.61804,-0.26162c-0.20002,-0.4957 -0.4054,-0.94321 -0.61614,-1.34252l0.73401,-0.4062c0.45719,0.83994 0.88939,1.86806 1.29658,3.08436l-0.78223,0.52324c-0.12144,-0.42685 -0.23396,-0.78715 -0.33754,-1.0809c-1.57161,0.37178 -3.33967,0.65634 -5.30418,0.85371l-0.26253,-1.02583c1.17513,-0.07344 2.12524,-0.15605 2.85033,-0.24785v-2.62997h-2.27705v-3.6971h2.27705zM176.92838,179.86472h-1.51089v1.92084h1.51089zM177.73204,179.86472v1.92084h1.56447v-1.92084zM186.00442,175.21064v-0.6747h-3.46647v-0.79175h7.81697v0.79175h-3.5254v0.6747h4.50587v2.32704h-0.84653v-1.5766h-3.65935v2.89159h-0.82509v-2.89159h-3.62184v1.5766h-0.84653v-2.32704zM182.84334,180.07814v2.25131h8.74386v0.79174h-4.16298c0.34647,0.5875 0.74473,1.07172 1.19478,1.45268c0.51077,-0.41308 1.00726,-0.88354 1.48946,-1.41137l0.659,0.56455c-0.42862,0.4498 -0.93761,0.87895 -1.52696,1.28745c0.65007,0.3626 1.44838,0.64258 2.39492,0.83994l-0.49827,0.91567c-1.39302,-0.33965 -2.48957,-0.92026 -3.28966,-1.74184c-0.49291,-0.50488 -0.92511,-1.14057 -1.29658,-1.90707h-1.45731v2.47162c1.0144,-0.18359 1.85557,-0.35801 2.5235,-0.52324l0.06429,0.78486c-1.31444,0.39472 -2.76996,0.72519 -4.36657,0.9914l-0.2411,-0.95009c0.42505,-0.05049 0.81617,-0.10327 1.17335,-0.15835v-2.6162h-1.40909c-0.02858,0.87665 -0.12323,1.60185 -0.28396,2.17558c-0.14645,0.51865 -0.36076,0.98681 -0.64293,1.40448l-0.69115,-0.79174c0.36076,-0.54619 0.58935,-1.15434 0.68579,-1.82445c0.06072,-0.41767 0.09108,-0.91338 0.09108,-1.4871v-3.28402h9.05461v0.76421zM182.99872,176.60824h2.38956v0.68847h-2.38956zM182.99872,177.90257h2.38956v0.68847h-2.38956zM187.42959,176.60824h2.4485v0.68847h-2.4485zM187.42959,177.90257h2.4485v0.68847h-2.4485zM183.6095,180.76662h6.60612v0.77798h-6.60612zM192.96951,174.6874h7.82769v0.99829h-4.54338v3.30467h5.41134v1.01206h-5.41134v3.73841c0,0.27998 0.0375,0.46816 0.11251,0.56455c0.07858,0.10098 0.25539,0.16753 0.53042,0.19966c0.38219,0.04131 0.90725,0.06196 1.57518,0.06196c0.81795,0 1.62162,-0.03442 2.41099,-0.10327v1.1291c-0.88939,0.05967 -1.72341,0.0895 -2.50207,0.0895c-1.05012,0 -1.75199,-0.0459 -2.1056,-0.13769c-0.40362,-0.10557 -0.66793,-0.32588 -0.79295,-0.66093c-0.07858,-0.21572 -0.11787,-0.51176 -0.11787,-0.88813v-3.99315h-2.94141v-1.01206h2.94141v-3.30467h-2.39492zM203.82968,175.80272h7.17404v1.06025h-7.17404zM202.76349,183.72705h9.30643v1.06025h-9.30643zM220.7227,175.43783l0.59471,0.66093c-0.47148,2.83651 -1.26443,5.04421 -2.37885,6.62311c-0.59293,0.83994 -1.35373,1.58578 -2.28241,2.23754c-0.68579,0.48193 -1.42516,0.86518 -2.21811,1.14975l-0.45005,-0.98452c1.88236,-0.67929 3.32717,-1.74184 4.33443,-3.18763c-0.93225,-1.09697 -1.89129,-2.01952 -2.87712,-2.76766l0.50899,-0.79863c1.06798,0.78027 2.03238,1.67299 2.89319,2.67816c0.76437,-1.4871 1.25907,-3.02469 1.4841,-4.61277h-3.95403c-0.81438,1.66611 -1.79663,2.96273 -2.94677,3.88987l-0.584,-0.78486c0.61078,-0.46357 1.16442,-1.03042 1.66091,-1.70053c0.89653,-1.19794 1.52875,-2.5244 1.89665,-3.97938l0.84117,0.28227l-0.01607,0.04819c-0.15359,0.4957 -0.29468,0.91108 -0.42326,1.24614zM226.98592,178.46712v-1.46645c-0.50363,0.08262 -1.13942,0.15835 -1.90736,0.2272l-0.33754,-0.87436c1.86093,-0.17441 3.3986,-0.44292 4.61303,-0.80552l0.4822,0.83305c-0.61436,0.19277 -1.31622,0.3603 -2.1056,0.50259v1.58349h2.00916v3.72464h-2.00916v2.27885c0.41433,-0.07803 0.82688,-0.15835 1.23764,-0.24097l0.19288,-0.04131c-0.18931,-0.44521 -0.36611,-0.82387 -0.53042,-1.13598l0.659,-0.41308c0.46077,0.8583 0.91439,1.87953 1.36087,3.06371l-0.7233,0.53701c-0.17859,-0.51865 -0.33218,-0.9478 -0.46077,-1.28745c-1.27157,0.38555 -2.8664,0.7206 -4.78448,1.00517l-0.26253,-1.03271c0.82867,-0.08262 1.63054,-0.18589 2.40563,-0.30981l0.16073,-0.02065v-2.40277h-1.95022v-3.72464zM226.98592,179.32771h-1.2055v2.00346h1.2055zM227.73064,179.32771v2.00346h1.26443v-2.00346zM231.465,173.97138v4.70916c0,2.79061 0.12501,4.81243 0.37504,6.06545c0.05715,0.29375 0.1018,0.44062 0.13394,0.44062c0.09287,0 0.19109,-0.79633 0.29468,-2.389l0.68044,0.75044c-0.09644,1.1704 -0.21431,1.98051 -0.35361,2.43031c-0.15359,0.49111 -0.35183,0.73667 -0.59471,0.73667c-0.24646,0 -0.47684,-0.25933 -0.69115,-0.77798c-0.45362,-1.11533 -0.68044,-3.37811 -0.68044,-6.78835v-4.26165h-6.46146v4.41311c0,1.81757 -0.06608,3.22894 -0.19824,4.23411c-0.15716,1.18417 -0.47863,2.26049 -0.9644,3.22894l-0.659,-0.83305c0.44648,-0.8996 0.73044,-1.9828 0.85188,-3.24959c0.08215,-0.83076 0.12323,-1.93461 0.12323,-3.31156v-5.39763zM237.33175,175.42406h0.7233v4.18592h3.25752v0.92944h-3.25752v4.18592h-0.7233v-4.18592h-3.25752v-0.92944h3.25752zM247.34004,175.21064v-0.6747h-3.46647v-0.79175h7.81697v0.79175h-3.52541v0.6747h4.50588v2.32704h-0.84653v-1.5766h-3.65935v2.89159h-0.82509v-2.89159h-3.62184v1.5766h-0.84653v-2.32704zM244.17896,180.07814v2.25131h8.74386v0.79174h-4.16298c0.34647,0.5875 0.74473,1.07172 1.19478,1.45268c0.51077,-0.41308 1.00726,-0.88354 1.48946,-1.41137l0.659,0.56455c-0.42862,0.4498 -0.93761,0.87895 -1.52696,1.28745c0.65007,0.3626 1.44838,0.64258 2.39492,0.83994l-0.49827,0.91567c-1.39302,-0.33965 -2.48957,-0.92026 -3.28966,-1.74184c-0.49291,-0.50488 -0.92511,-1.14057 -1.29658,-1.90707h-1.45731v2.47162c1.0144,-0.18359 1.85557,-0.35801 2.5235,-0.52324l0.06429,0.78486c-1.31444,0.39472 -2.76996,0.72519 -4.36657,0.9914l-0.2411,-0.95009c0.42505,-0.05049 0.81616,-0.10327 1.17335,-0.15835v-2.6162h-1.40909c-0.02858,0.87665 -0.12323,1.60185 -0.28396,2.17558c-0.14645,0.51865 -0.36076,0.98681 -0.64293,1.40448l-0.69115,-0.79174c0.36076,-0.54619 0.58935,-1.15434 0.68579,-1.82445c0.06072,-0.41767 0.09108,-0.91338 0.09108,-1.4871v-3.28402h9.05461v0.76421zM244.33434,176.60824h2.38956v0.68847h-2.38956zM244.33434,177.90257h2.38956v0.68847h-2.38956zM248.7652,176.60824h2.4485v0.68847h-2.4485zM248.7652,177.90257h2.4485v0.68847h-2.4485zM244.94512,180.76662h6.60612v0.77798h-6.60612zM259.47536,174.74936h4.32371v0.9019h-2.5235v1.36318h2.36813v0.87436h-2.36813v2.1205h-4.09333v-2.1205h-2.03059v1.42514c0,2.12509 -0.07858,3.77972 -0.23574,4.96389c-0.12144,0.89961 -0.32504,1.72807 -0.61078,2.48539l-0.73401,-0.72978c0.30004,-0.80781 0.49827,-1.80839 0.59471,-3.00174c0.07858,-0.95927 0.11787,-2.19852 0.11787,-3.71776v-4.56458h4.32371v-1.37006h0.86796zM255.15165,175.65126v1.36318h2.03059v-1.36318zM258.02877,175.65126v1.36318h2.40028v-1.36318zM258.02877,177.8888v1.31499h2.40028v-1.31499zM259.44322,185.02138c-1.08227,0.76191 -2.41814,1.3517 -4.0076,1.76938l-0.47148,-0.96386c1.5216,-0.31211 2.76818,-0.77339 3.73972,-1.38383c-0.88582,-0.78945 -1.58768,-1.64775 -2.1056,-2.57489h-0.83045v-0.91567h6.38645l0.46077,0.53701c-0.55364,1.02812 -1.36623,2.01034 -2.43778,2.94667c0.95725,0.5875 2.17882,1.03271 3.66471,1.33564l-0.52506,0.9914c-1.44302,-0.37178 -2.73424,-0.95239 -3.87366,-1.74184zM257.53586,181.86817c0.46791,0.71601 1.05905,1.36547 1.77342,1.94838l0.11251,0.09639c0.88582,-0.7206 1.53589,-1.40219 1.95022,-2.04477zM266.81549,181.57213v2.82963c0,0.41308 0.14466,0.66552 0.43398,0.75732c0.36076,0.11475 1.30908,0.17212 2.84497,0.17212c1.5216,0 2.6128,-0.05278 3.27359,-0.15835c0.27146,-0.04131 0.44291,-0.15376 0.51434,-0.33735c0.10001,-0.25244 0.16252,-0.856 0.18752,-1.81068l0.8626,0.37866c-0.03929,0.93632 -0.09644,1.56284 -0.17145,1.87953c-0.1143,0.47275 -0.38933,0.76191 -0.8251,0.86748c-0.55721,0.1377 -1.87521,0.20654 -3.95403,0.20654c-1.90022,0 -3.03606,-0.08721 -3.40753,-0.26162c-0.41076,-0.19277 -0.61614,-0.64257 -0.61614,-1.34941v-7.16012c-0.29646,0.28916 -0.58221,0.5416 -0.85724,0.75732l-0.55721,-0.81928c1.32515,-0.9455 2.41278,-2.26737 3.26288,-3.96561l0.54649,0.53701h3.16108l0.49291,0.60586c-0.53935,0.96386 -1.06798,1.78315 -1.5859,2.45785h3.50397v4.41311zM266.81549,180.65646h2.65745v-2.55424h-2.65745zM266.3708,177.15902h3.05392c0.52863,-0.67929 0.98404,-1.39072 1.36623,-2.13427h-2.79675c-0.46434,0.74814 -1.00547,1.45956 -1.6234,2.13427zM270.30875,178.10222v2.55424h2.74853v-2.55424z" fill="#ffffff" stroke="#ffffff" stroke-width="0.25" stroke-linecap="butt" stroke-linejoin="miter"/></g></g></svg>