<svg version="1.1" xmlns="http://www.w3.org/2000/svg" xmlns:xlink="http://www.w3.org/1999/xlink" width="165.1" height="42.534" viewBox="0,0,165.1,42.534"><g transform="translate(-240,-180)"><g stroke="none" stroke-miterlimit="10"><path d="M248,180h149.1c4.432,0 8,3.568 8,8v26.534c0,4.432 -3.568,8 -8,8h-149.1c-4.432,0 -8,-3.568 -8,-8v-26.534c0,-4.432 3.568,-8 8,-8z" fill-opacity="0.7" fill="#000000" fill-rule="evenodd" stroke-width="0"/><g fill="#fff1f1" fill-rule="nonzero" stroke-width="3.969"><path d="M247.39034,187.65631h1.46041l2.41463,3.7796c0.24616,0.38724 0.50893,0.90307 0.78828,1.54752h0.0332c-0.05532,-0.77722 -0.08298,-1.53369 -0.08298,-2.26941v-3.05771h1.0787v6.88296h-1.0787l-2.81294,-4.38536c-0.30978,-0.48127 -0.57254,-0.97637 -0.78828,-1.48528h-0.04564c0.08021,0.79382 0.12031,1.60976 0.12031,2.44783v3.42281h-1.08701zM254.22768,187.65631h2.88761v0.76339h-0.8837v5.35619h0.8837v0.76339h-2.88761v-0.76339h0.8837v-5.35619h-0.8837zM258.30602,187.65631h4.66332v0.92519h-3.57632v1.96655h3.16142v0.9169h-3.16142v2.12421h3.69663v0.95008h-4.78363zM264.24719,187.65631h2.24868c0.96254,0 1.74804,0.19774 2.35654,0.59327c0.48679,0.31809 0.84914,0.75509 1.08701,1.31104c0.19915,0.45915 0.2987,0.96806 0.2987,1.52679c0,0.94594 -0.26968,1.72732 -0.80902,2.34412c-0.40659,0.46467 -0.92658,0.78138 -1.55997,0.95008c-0.40659,0.10511 -0.88649,0.15766 -1.43966,0.15766h-2.1823zM265.35079,188.5815v5.01598h0.92521c0.80763,0 1.42306,-0.14381 1.84625,-0.43147c0.62787,-0.43149 0.94179,-1.12434 0.94179,-2.07859c0,-1.00955 -0.35404,-1.72594 -1.0621,-2.14912c-0.39828,-0.23787 -0.957,-0.35681 -1.67614,-0.35681zM275.38275,193.87547c1.62357,-0.40936 2.43538,-1.34009 2.43538,-2.79219c0,-0.63339 -0.16318,-1.17827 -0.48956,-1.63465c-0.3651,-0.51447 -0.92106,-0.84499 -1.66785,-0.99159c-0.16318,1.28338 -0.38585,2.33442 -0.66798,3.15313c-0.19361,0.57256 -0.43424,1.11328 -0.72191,1.62221c-0.41488,0.72466 -0.88647,1.08701 -1.41475,1.08701c-0.39276,0 -0.74264,-0.17701 -1.04965,-0.53105c-0.19638,-0.22404 -0.35542,-0.49926 -0.47712,-0.82564c-0.16043,-0.42318 -0.24064,-0.87816 -0.24064,-1.36497c0,-0.78828 0.21713,-1.51435 0.65136,-2.17817c0.43978,-0.67765 1.01096,-1.16998 1.71349,-1.47699c0.51168,-0.22404 1.07318,-0.33606 1.68443,-0.33606c0.95425,0 1.76466,0.25585 2.43125,0.76755c0.81871,0.62787 1.22805,1.5171 1.22805,2.66773c0,1.92784 -0.97497,3.15036 -2.92494,3.6676zM274.76042,188.42386c-0.48956,0.05532 -0.89892,0.1867 -1.22805,0.39414c-0.21021,0.13552 -0.41903,0.31532 -0.62649,0.53936c-0.57531,0.63616 -0.86297,1.37328 -0.86297,2.21134c0,0.61125 0.12169,1.08978 0.3651,1.43551c0.14935,0.21298 0.29734,0.31946 0.44394,0.31946c0.19915,0 0.42318,-0.21988 0.67211,-0.65967c0.6085,-1.07041 1.02061,-2.48379 1.23636,-4.24014zM282.35699,191.14136c-0.02766,1.74806 -0.11338,2.8572 -0.25723,3.32739c-0.07467,0.24064 -0.19361,0.40936 -0.35681,0.50616c-0.15212,0.09128 -0.36925,0.13691 -0.65138,0.13691c-0.26552,0 -0.59467,-0.02352 -0.98743,-0.07053l-0.1701,-0.82562c0.4619,0.05809 0.78551,0.08713 0.97083,0.08713c0.19363,0 0.31671,-0.04978 0.36925,-0.14935c0.09682,-0.17978 0.17149,-0.92658 0.22404,-2.24039h-1.15754c-0.00548,0.01937 -0.00963,0.04287 -0.01244,0.07053c-0.0166,0.10786 -0.04703,0.27383 -0.09128,0.49785l-0.81317,-0.12446c0.17149,-1.20593 0.27658,-2.24039 0.3153,-3.10334h1.68859v-1.04136h-1.94582v-0.80073h2.77146v2.61378h-1.73423l-0.02073,0.35265c-0.01658,0.24064 -0.03733,0.4951 -0.06224,0.76339zM284.531,189.4984l-0.15351,0.01244c-0.47019,0.03872 -1.04275,0.07605 -1.71763,0.11202l-0.2033,-0.80073c0.15212,-0.00281 0.27935,-0.00554 0.3817,-0.00823c0.05809,0 0.13275,-0.0014 0.22404,-0.00421c0.42872,-0.60021 0.78828,-1.19348 1.07872,-1.77985l0.8671,0.20328c-0.28212,0.48681 -0.62787,1.00265 -1.03723,1.54752l0.32361,-0.00823c0.53934,-0.01658 1.14094,-0.04839 1.80476,-0.09542l-0.07053,-0.09126c-0.16595,-0.22681 -0.3651,-0.47296 -0.59744,-0.73849l0.697,-0.36925c0.6251,0.697 1.09255,1.32903 1.40233,1.89604l-0.72189,0.45223c-0.11617,-0.22404 -0.21575,-0.40384 -0.29872,-0.53936c-0.42318,0.05809 -0.80211,0.10371 -1.13678,0.13691v0.81733h1.77572v2.37731h-1.77572v1.38571c0.25723,-0.02766 0.53105,-0.05807 0.82148,-0.09126l0.09128,-0.01244c-0.12448,-0.27106 -0.26137,-0.53382 -0.41074,-0.78828l0.77168,-0.30701c0.35679,0.5449 0.68317,1.20454 0.97912,1.979l-0.80904,0.39828c-0.09955,-0.27658 -0.18391,-0.49647 -0.25308,-0.65967l-0.31117,0.0498c-1.16721,0.19086 -2.36762,0.33744 -3.60121,0.43976l-0.22819,-0.81317c0.66382,-0.02489 1.35253,-0.06363 2.06615,-0.11617l0.04149,-0.00421v-1.46043h-1.72594v-2.37729h1.72594zM284.531,190.93806h-0.95425v0.98328h0.95425zM285.37322,190.93806v0.98328h0.97499v-0.98328zM291.48865,188.18322v-0.35681h-2.59304v-0.59329h6.12372v0.59329h-2.64697v0.35681h3.43526v1.48944h-0.9003v-0.95423h-2.53496v1.61392h-0.8837v-1.61392h-2.48933v0.95423h-0.89199v-1.48944zM294.42603,194.07046c0.42318,0.16043 0.95146,0.28766 1.58488,0.3817l-0.48543,0.70531c-0.88786,-0.15212 -1.61669,-0.41351 -2.18646,-0.78415c-0.567,-0.37062 -1.00819,-0.83116 -1.32349,-1.38157h-0.9169v1.27784c0.61127,-0.08574 1.17829,-0.17703 1.70105,-0.27383l0.05809,0.61818c-0.9736,0.23235 -2.08688,0.43424 -3.33984,0.60573l-0.24479,-0.7302c0.43424,-0.04703 0.73158,-0.08021 0.89199,-0.09957l0.04978,-0.00823v-1.38986h-0.90861c-0.03872,0.48681 -0.10234,0.87541 -0.19084,1.16583c-0.10511,0.3485 -0.27383,0.6735 -0.50616,0.97499l-0.73849,-0.60995c0.27104,-0.35127 0.43976,-0.76201 0.50616,-1.23222c0.03595,-0.25446 0.05393,-0.57115 0.05393,-0.95008v-1.75912h7.16093v0.5518h-6.26893v1.27369h6.62574v0.585h-0.94179l0.52691,0.3485c-0.31255,0.26 -0.6818,0.50339 -1.10776,0.7302zM293.77881,193.751c0.3983,-0.27106 0.71498,-0.52414 0.9501,-0.75924h-1.81305c0.23787,0.30426 0.52553,0.55734 0.86297,0.75924zM289.36443,189.02544h1.76743v0.46883h-1.76743zM289.36443,189.78883h1.76743v0.47712h-1.76743zM292.72916,189.02544h1.82136v0.46883h-1.82136zM292.72916,189.78883h1.82136v0.47712h-1.82136zM289.81664,191.48157h5.16533v0.54349h-5.16533zM296.9693,187.71024h6.29798v0.8505h-3.50994v1.76327h4.17376v0.8505h-4.17376v2.05784c0,0.15489 0.02766,0.2586 0.08298,0.31117c0.10786,0.10786 0.61681,0.1618 1.52679,0.1618c0.64445,0 1.29998,-0.02214 1.96655,-0.06638v0.9335c-0.69148,0.03595 -1.34563,0.05393 -1.96242,0.05393c-0.91275,0 -1.49636,-0.02766 -1.75081,-0.08298c-0.35681,-0.07469 -0.59331,-0.23789 -0.70946,-0.48958c-0.06917,-0.1466 -0.10373,-0.33606 -0.10373,-0.5684v-2.31092h-2.26114v-0.8505h2.26114v-1.76327h-1.83796zM305.59064,188.41555h5.70884v0.89199h-5.70884zM304.74842,193.166h7.39327v0.9003h-7.39327zM318.99563,188.17491l0.59329,0.48543c-0.38724,1.7702 -1.01509,3.14069 -1.88358,4.11152c-0.48127,0.53659 -1.1036,1.00678 -1.86698,1.41062c-0.54213,0.28487 -1.12434,0.5117 -1.74667,0.68042l-0.48127,-0.81733c1.42168,-0.37062 2.52528,-0.96252 3.31079,-1.77572c-0.64722,-0.58085 -1.36084,-1.0953 -2.14081,-1.54339l0.54351,-0.67213c0.76063,0.39553 1.4839,0.88232 2.16986,1.46041c0.53934,-0.86297 0.87818,-1.69826 1.01647,-2.50591h-2.92081c-0.66934,1.04275 -1.45762,1.84071 -2.36485,2.39389l-0.60989,-0.65969c0.8768,-0.52828 1.59732,-1.22666 2.16157,-2.09517c0.29043,-0.44253 0.51583,-0.91967 0.67627,-1.43135l0.9003,0.2199c-0.09128,0.24893 -0.19363,0.4951 -0.30701,0.73849zM324.7501,193.87547c1.62359,-0.40936 2.43538,-1.34009 2.43538,-2.79219c0,-0.63339 -0.16318,-1.17827 -0.48956,-1.63465c-0.3651,-0.51447 -0.92104,-0.84499 -1.66783,-0.99159c-0.1632,1.28338 -0.38585,2.33442 -0.66798,3.15313c-0.19361,0.57256 -0.43426,1.11328 -0.72191,1.62221c-0.41488,0.72466 -0.88647,1.08701 -1.41475,1.08701c-0.39276,0 -0.74264,-0.17701 -1.04965,-0.53105c-0.19638,-0.22404 -0.35542,-0.49926 -0.47712,-0.82564c-0.16043,-0.42318 -0.24064,-0.87816 -0.24064,-1.36497c0,-0.78828 0.21713,-1.51435 0.65136,-2.17817c0.43978,-0.67765 1.01096,-1.16998 1.71349,-1.47699c0.51168,-0.22404 1.07318,-0.33606 1.68443,-0.33606c0.95425,0 1.76466,0.25585 2.43125,0.76755c0.81871,0.62787 1.22807,1.5171 1.22807,2.66773c0,1.92784 -0.97499,3.15036 -2.92494,3.6676zM324.12778,188.42386c-0.48956,0.05532 -0.89892,0.1867 -1.22807,0.39414c-0.21021,0.13552 -0.41903,0.31532 -0.62647,0.53936c-0.57531,0.63616 -0.86297,1.37328 -0.86297,2.21134c0,0.61125 0.12171,1.08978 0.36512,1.43551c0.14935,0.21298 0.29734,0.31946 0.44394,0.31946c0.19915,0 0.42316,-0.21988 0.67211,-0.65967c0.6085,-1.07041 1.02063,-2.48379 1.23636,-4.24014zM332.35912,188.18322v-0.35681h-2.59304v-0.59329h6.12372v0.59329h-2.64697v0.35681h3.43526v1.48944h-0.9003v-0.95423h-2.53496v1.61392h-0.88372v-1.61392h-2.48931v0.95423h-0.89201v-1.48944zM335.29652,194.07046c0.42318,0.16043 0.95146,0.28766 1.58488,0.3817l-0.48543,0.70531c-0.88786,-0.15212 -1.61667,-0.41351 -2.18646,-0.78415c-0.56702,-0.37062 -1.00819,-0.83116 -1.32351,-1.38157h-0.9169v1.27784c0.61125,-0.08574 1.17827,-0.17703 1.70103,-0.27383l0.05809,0.61818c-0.9736,0.23235 -2.08688,0.43424 -3.33984,0.60573l-0.24477,-0.7302c0.43424,-0.04703 0.73158,-0.08021 0.89199,-0.09957l0.04978,-0.00823v-1.38986h-0.90859c-0.03874,0.48681 -0.10234,0.87541 -0.19084,1.16583c-0.10511,0.3485 -0.27381,0.6735 -0.50616,0.97499l-0.73849,-0.60987c0.27104,-0.35127 0.43978,-0.76201 0.50616,-1.2322c0.03597,-0.25446 0.05393,-0.57117 0.05393,-0.9501v-1.75912h7.16095v0.5518h-6.26893v1.27369h6.62574v0.585h-0.94179l0.52689,0.3485c-0.31255,0.26 -0.6818,0.50339 -1.10774,0.7302zM334.6493,193.751c0.39828,-0.27106 0.71498,-0.52414 0.95008,-0.75924h-1.81305c0.23787,0.30426 0.52553,0.55734 0.86297,0.75924zM330.2349,189.02544h1.76741v0.46883h-1.76741zM330.2349,189.78883h1.76741v0.47712h-1.76741zM333.59963,189.02544h1.82136v0.46883h-1.82136zM333.59963,189.78883h1.82136v0.47712h-1.82136zM330.68713,191.48157h5.16533v0.54349h-5.16533zM341.97204,187.80981h3.25271v0.697h-1.84209v0.68871h1.72594v0.67211h-1.72594v1.23636h-3.33984v-1.23636h-1.36084v0.77168c0,1.25296 -0.06638,2.24316 -0.19915,2.97058c-0.10232,0.55319 -0.26829,1.05796 -0.49787,1.51435l-0.75509,-0.59744c0.21021,-0.45636 0.35402,-1.01368 0.43147,-1.67199c0.06915,-0.57808 0.10373,-1.31658 0.10373,-2.2155v-2.82952h3.28175v-0.7468h0.92519zM338.682,188.50683v0.68871h1.36084v-0.68871zM340.92653,188.50683v0.68871h1.57241v-0.68871zM340.92653,189.86765v0.64307h1.57241v-0.64307zM341.88907,194.22396c-0.79934,0.41488 -1.81445,0.7302 -3.04527,0.94594l-0.43147,-0.76337c1.15615,-0.13829 2.06197,-0.34988 2.7175,-0.63478c-0.56148,-0.40659 -1.04136,-0.88924 -1.43964,-1.44797h-0.57256v-0.72191h4.85832l0.43565,0.3651c-0.41213,0.63339 -0.99988,1.22945 -1.76327,1.78816c0.65551,0.26275 1.54891,0.45638 2.68015,0.58085l-0.48541,0.78413c-1.08424,-0.1466 -2.0689,-0.44532 -2.95399,-0.89615zM340.65685,192.32379c0.33467,0.39276 0.74128,0.73849 1.21976,1.03721c0.53936,-0.3485 0.95564,-0.69425 1.24882,-1.03721zM346.50675,188.22884h2.23623c0.24618,-0.39276 0.43286,-0.70944 0.56009,-0.95008l0.92521,0.13277c-0.08298,0.14935 -0.22958,0.39278 -0.43978,0.73022l-0.05393,0.08713h2.92494v0.81733h-3.47674c-0.36235,0.49785 -0.70808,0.92935 -1.03723,1.29444c0.52276,-0.31255 0.99988,-0.46883 1.43137,-0.46883c0.66934,0 1.10774,0.33606 1.3152,1.00819c0.70806,-0.2351 1.42999,-0.46744 2.1657,-0.697l0.35681,0.80488l-0.14522,0.04149l-0.41074,0.10786c-0.77445,0.21021 -1.39402,0.38999 -1.85869,0.53936c0.03318,0.35958 0.05668,0.82425 0.07053,1.39404l-0.90859,0.04978c-0.00281,-0.32913 -0.00835,-0.68596 -0.01666,-1.07041v-0.08298c-1.27232,0.43424 -1.90849,0.87126 -1.90849,1.31104c0,0.22681 0.1632,0.38172 0.48958,0.46469c0.31532,0.08021 0.87955,0.12031 1.69274,0.12031c0.74957,0 1.53646,-0.04287 2.3607,-0.12862l0.09957,0.8837c-0.79934,0.06086 -1.62773,0.09128 -2.48516,0.09128c-1.05658,0 -1.80751,-0.08021 -2.25283,-0.24064c-0.55042,-0.19915 -0.82564,-0.55732 -0.82564,-1.07454c0,-0.43701 0.19499,-0.82285 0.585,-1.15754c0.40382,-0.34575 1.11466,-0.70254 2.1325,-1.07041c-0.05532,-0.21298 -0.12862,-0.36233 -0.2199,-0.44807c-0.10232,-0.09682 -0.23787,-0.14522 -0.40659,-0.14522c-0.27383,0 -0.61818,0.10373 -1.03307,0.31117c-0.51168,0.25446 -1.06071,0.63755 -1.6471,1.14925l-0.5518,-0.63062c0.8602,-0.79936 1.53369,-1.58488 2.02051,-2.35656h-1.68859zM356.25245,192.07484v1.50606c0,0.21852 0.08023,0.34988 0.24064,0.39414c0.23787,0.06638 1.02476,0.09957 2.3607,0.09957c1.18658,0 1.92507,-0.03456 2.21548,-0.10373c0.13829,-0.0332 0.22681,-0.11065 0.26552,-0.23235c0.04701,-0.13829 0.08436,-0.46052 0.11202,-0.96668l0.9169,0.28212c-0.03043,0.5449 -0.07469,0.91829 -0.13277,1.12018c-0.07467,0.26275 -0.21298,0.44117 -0.41488,0.5352c-0.14383,0.06638 -0.34298,0.10788 -0.59742,0.12446c-0.65551,0.04703 -1.51158,0.07053 -2.56815,0.07053c-1.47976,0 -2.35933,-0.02627 -2.63868,-0.07882c-0.3153,-0.05809 -0.5186,-0.19638 -0.60987,-0.41488c-0.04424,-0.11063 -0.06638,-0.24893 -0.06638,-0.41488v-4.26087l-0.04149,0.0332c-0.12723,0.09128 -0.27797,0.19222 -0.45223,0.30286l-0.5684,-0.68871c0.98743,-0.54211 1.82274,-1.3152 2.50591,-2.31921l0.58085,0.3983h2.36072l0.43978,0.45636c-0.3651,0.51724 -0.7468,0.98328 -1.14509,1.39817h2.65942v2.75899zM356.25245,191.33636h1.784v-1.25711h-1.784zM358.92847,190.07924v1.25711h1.82134v-1.25711zM357.96592,189.31585c0.35681,-0.37341 0.66105,-0.73989 0.91275,-1.09945h-1.91678c-0.30701,0.37616 -0.67211,0.74266 -1.0953,1.09945zM366.73663,191.05839c-0.08574,0.90169 -0.28074,1.62634 -0.585,2.17399c-0.45638,0.82702 -1.24051,1.4618 -2.35241,1.90433l-0.585,-0.77584c0.76614,-0.22681 1.3719,-0.61266 1.8172,-1.15754c0.41213,-0.50341 0.66382,-1.21837 0.75509,-2.14495h-1.4521v-0.59744c-0.30424,0.31255 -0.64445,0.6085 -1.02061,0.88786l-0.59329,-0.71777c1.21147,-0.83531 2.07305,-2.00252 2.58475,-3.50163l0.8837,0.31532c-0.37616,1.04552 -0.92242,1.97484 -1.63879,2.78804h4.72141c-0.82702,-0.78274 -1.51573,-1.72592 -2.06615,-2.82952l0.84224,-0.34021c0.69148,1.41062 1.64846,2.48931 2.87101,3.23611l-0.5518,0.81733c-0.37064,-0.26275 -0.69425,-0.5186 -0.97083,-0.76755l-0.00421,0.1701c-0.03318,1.43551 -0.10509,2.58198 -0.21573,3.43941c-0.05809,0.45361 -0.18809,0.75095 -0.38999,0.89201c-0.1798,0.12723 -0.4951,0.19084 -0.94594,0.19084c-0.34021,0 -0.76063,-0.0166 -1.26125,-0.0498l-0.1701,-0.87541c0.45361,0.06086 0.86435,0.09128 1.23222,0.09128c0.21573,0 0.35958,-0.03043 0.43147,-0.09128c0.07192,-0.06086 0.12862,-0.22127 0.1701,-0.48127c0.10234,-0.61679 0.16459,-1.47561 0.1867,-2.57644zM376.47818,187.27461h0.92519v1.87944h1.58901v0.84222h-1.58901v0.68042c0,0.93211 -0.04006,1.59871 -0.12023,1.99975c-0.20192,1.01509 -0.88649,1.7702 -2.0537,2.26528l-0.56009,-0.71362c0.72745,-0.32913 1.21976,-0.74128 1.47699,-1.23636c0.16597,-0.32638 0.26831,-0.76063 0.30701,-1.30275c0.0166,-0.25721 0.02489,-0.58083 0.02489,-0.97083v-0.72191h-2.75486v-0.84222h2.75486zM372.06378,194.67619c-0.13554,-1.04275 -0.2033,-2.18369 -0.2033,-3.42281c0,-1.31379 0.07746,-2.59997 0.23235,-3.85844l0.90032,0.08298c-0.14383,1.31379 -0.21575,2.56538 -0.21575,3.75473c0,1.2087 0.06638,2.31367 0.19911,3.31493zM380.4196,187.41152h0.97912v4.94545c0,1.04275 0.54767,1.56412 1.64296,1.56412c0.72189,0 1.31379,-0.33331 1.77572,-0.99988c0.2987,-0.4287 0.56702,-1.09255 0.80488,-1.99146l0.84222,0.51031c-0.28212,0.99849 -0.62095,1.74529 -1.01647,2.24039c-0.62233,0.77168 -1.43135,1.15754 -2.42709,1.15754c-1.03998,0 -1.77295,-0.32084 -2.1989,-0.96254c-0.26829,-0.40107 -0.40243,-0.91829 -0.40243,-1.55168zM387.31915,188.54001h1.93753c0.07748,-0.34296 0.16459,-0.7869 0.26137,-1.3318l0.93765,0.11617c-0.08298,0.4287 -0.17147,0.83393 -0.26552,1.21562h2.76313v0.82562h-2.95814c-0.55319,2.20996 -1.16444,4.04238 -1.83378,5.49725l-0.9169,-0.32361c0.72743,-1.61251 1.33316,-3.33707 1.8172,-5.17364h-1.74254zM394.66265,194.64299c-0.44807,0.05809 -0.95146,0.08713 -1.51019,0.08713c-0.90446,0 -1.58761,-0.07746 -2.04953,-0.23235c-0.17703,-0.06086 -0.32777,-0.1466 -0.45223,-0.25723c-0.24339,-0.22127 -0.3651,-0.50339 -0.3651,-0.84637c0,-0.35127 0.1134,-0.66105 0.34021,-0.92935l0.73849,0.43563c-0.08577,0.10786 -0.12866,0.22681 -0.12866,0.35681c0,0.22404 0.10234,0.36925 0.30703,0.43563c0.31253,0.09957 0.75786,0.14935 1.33593,0.14935c0.56148,0 1.12157,-0.04149 1.68028,-0.12446zM390.77101,190.53147c1.08426,-0.12448 2.27084,-0.19086 3.55974,-0.19915l0.04155,0.84222c-1.26404,0.0055 -2.42432,0.06495 -3.4809,0.17839z"/><path d="M247.54387,198.07412h0.96668v6.21916c0.51724,-0.16595 0.97774,-0.35819 1.38157,-0.57671c1.13403,-0.61125 2.07582,-1.38986 2.82539,-2.33581c0.22127,-0.27935 0.43286,-0.60019 0.63478,-0.96254l0.61404,0.86712c-0.57531,0.8934 -1.30137,1.67337 -2.17815,2.33996c-1.06764,0.8104 -2.28464,1.41062 -3.651,1.8006l-0.59327,-0.58085zM254.40194,203.4469c0.99849,-1.29167 1.83657,-2.75899 2.51422,-4.40193h1.02061c1.00957,1.73423 2.36624,3.45047 4.07003,5.14873l-0.58498,0.81317c-1.39402,-1.36913 -2.71473,-3.02867 -3.96217,-4.97863h-0.0332c-0.74957,1.69274 -1.51156,3.05219 -2.28601,4.07832zM260.06929,200.53025c-0.17701,-0.4619 -0.46052,-0.97222 -0.8505,-1.53092l0.65551,-0.23648c0.34573,0.48127 0.63203,0.98051 0.85881,1.49775zM261.26,200.16515c-0.2351,-0.56977 -0.51308,-1.08285 -0.83393,-1.53923l0.60989,-0.2033c0.32361,0.38724 0.60435,0.86849 0.84222,1.44381zM264.44218,198.33135h0.9335v1.51017c0,1.44658 -0.10786,2.50316 -0.32361,3.16975c-0.28489,0.88232 -0.88232,1.61805 -1.79231,2.20719l-0.63478,-0.73849c0.63064,-0.44253 1.07456,-0.90169 1.33178,-1.37742c0.21573,-0.40107 0.35819,-0.93904 0.42734,-1.61392c0.03872,-0.3817 0.05809,-0.92519 0.05809,-1.6305zM266.56642,198.09072h0.93348v5.89555c0.55042,-0.28489 1.03307,-0.69009 1.44797,-1.21562c0.45361,-0.57531 0.79244,-1.25711 1.01647,-2.04539l0.7302,0.70531c-0.27658,0.82148 -0.65551,1.52263 -1.13678,2.10348c-0.60573,0.73297 -1.39954,1.30966 -2.38145,1.73007l-0.60987,-0.52691zM271.83547,205.40101c-0.10511,-0.94042 -0.15766,-1.87529 -0.15766,-2.80463c0,-1.59317 0.11756,-3.10611 0.35265,-4.53886l0.91275,0.09542c-0.22404,1.23913 -0.33606,2.63728 -0.33606,4.1945c0,1.04552 0.05809,2.02328 0.17426,2.93325zM274.32479,198.8292h3.98706v0.88372h-3.98706zM278.59397,204.8907c-0.55319,0.08574 -1.21008,0.12862 -1.97071,0.12862c-1.91124,0 -2.86688,-0.56148 -2.86688,-1.68443c0,-0.44532 0.11894,-0.83393 0.35681,-1.16583l0.78413,0.3485c-0.14935,0.21021 -0.22404,0.44669 -0.22404,0.70944c0,0.32361 0.16182,0.54626 0.48543,0.66798c0.35958,0.13829 0.8505,0.20744 1.47286,0.20744c0.67211,0 1.29444,-0.04426 1.86698,-0.13277zM281.70977,203.29338c-0.51445,0.3485 -1.01509,0.61266 -1.50188,0.79244l-0.5684,-0.63893c1.32487,-0.44807 2.28464,-1.06625 2.87932,-1.85454l0.84222,0.20744c-0.11894,0.15489 -0.23785,0.2932 -0.35679,0.4149h2.8627l0.52691,0.44392c-0.42042,0.50616 -1.01645,1.02476 -1.78816,1.55583c0.86849,0.29318 1.86146,0.51583 2.97889,0.66798l-0.46881,0.86712c-1.31658,-0.2517 -2.44369,-0.59606 -3.38133,-1.03307c-1.05104,0.51447 -2.26666,0.86987 -3.64685,1.06625l-0.4149,-0.78828c1.09253,-0.08574 2.17124,-0.3319 3.23611,-0.73849l-0.04564,-0.02904c-0.43701,-0.29043 -0.82146,-0.60158 -1.15338,-0.9335zM282.39019,202.90339c0.36787,0.34021 0.83531,0.65551 1.40233,0.94594c0.59191,-0.34021 1.00817,-0.65551 1.2488,-0.94594zM283.97089,198.4475h3.44357v0.72191h-2.40634v1.85869c0,0.27106 -0.0733,0.45636 -0.2199,0.55594c-0.12171,0.08298 -0.325,0.12446 -0.60987,0.12446c-0.26829,0 -0.55871,-0.02214 -0.87126,-0.06638l-0.10786,-0.72191c0.30149,0.04978 0.55457,0.07469 0.75924,0.07469c0.08021,0 0.12723,-0.01798 0.14106,-0.05393c0.01112,-0.02489 0.01666,-0.06638 0.01666,-0.12446v-1.6471h-1.07041c0,0.60296 -0.06776,1.07595 -0.2033,1.41891c-0.23787,0.60573 -0.69148,1.03859 -1.36084,1.2986l-0.62655,-0.57671c0.51724,-0.2019 0.8671,-0.4619 1.04965,-0.77997c0.10511,-0.18255 0.17839,-0.40107 0.21988,-0.65551c0.02489,-0.14935 0.04285,-0.38447 0.05393,-0.70531h-2.5142v-0.72191h3.39792v-0.76339h0.90861zM286.77553,201.53426c-0.40936,-0.61681 -0.88232,-1.1921 -1.41891,-1.72592l0.6804,-0.46052c0.52553,0.45361 1.00403,0.99572 1.43551,1.62634zM279.47767,200.93684c0.56702,-0.43424 0.98605,-0.93763 1.25711,-1.51019l0.77168,0.28628c-0.38447,0.79382 -0.87678,1.40923 -1.47699,1.84625zM292.94904,200.09047c-0.02766,0.50616 -0.09955,0.90584 -0.21573,1.19902c-0.12446,0.30978 -0.34573,0.58362 -0.66382,0.82148l-0.42318,-0.43563v0.80904h-0.76339v-2.48102l-0.39828,-0.43563v0.47296h-0.66382v1.34422c0.17701,-0.06917 0.40382,-0.16043 0.6804,-0.27383l0.08298,0.78828c-0.21021,0.09957 -0.46465,0.21436 -0.76337,0.34436v2.77146c0,0.24893 -0.04426,0.42734 -0.13277,0.5352c-0.10511,0.12448 -0.30842,0.1867 -0.60989,0.1867c-0.29872,0 -0.57254,-0.02766 -0.82148,-0.08298l-0.16182,-0.82562l0.14935,0.02073c0.25446,0.0332 0.43701,0.0498 0.54765,0.0498c0.09128,0 0.14522,-0.02212 0.16182,-0.06638c0.01112,-0.02766 0.01666,-0.07053 0.01666,-0.12862v-2.12006c-0.31255,0.1134 -0.58777,0.20882 -0.82564,0.28628l-0.25308,-0.84222c0.40107,-0.11617 0.76063,-0.22819 1.07872,-0.33606v-1.65125h-0.95839v-0.82564h0.95839v-1.53092h0.8505v1.53092h0.66382v0.23648c0.59744,-0.40936 1.08701,-0.99297 1.4687,-1.75083l0.53934,0.33192h1.75498l0.43563,0.3485c-0.26829,0.40384 -0.52551,0.74957 -0.77168,1.03723h1.57657v3.066h-0.78828v-0.69286h-0.78413c-0.36233,0 -0.54351,-0.18116 -0.54351,-0.54349v-1.15754zM292.26033,200.09047h-0.61404v1.46455c0.26829,-0.19915 0.44394,-0.46467 0.52691,-0.79657c0.0498,-0.19361 0.07882,-0.41626 0.08713,-0.66798zM293.07766,199.41836c0.24064,-0.29595 0.41213,-0.53382 0.51447,-0.71362h-1.36499c-0.15489,0.22681 -0.35265,0.46467 -0.59329,0.71362zM294.05265,200.09047v0.95008c0,0.06917 0.03318,0.10373 0.09957,0.10373h0.54765v-1.05381zM292.52586,203.54648h-2.30676v-0.72191h2.48931v-0.7468h0.83393v0.7468h2.53909v0.72191h-2.31921c0.4287,0.63339 1.23359,1.09255 2.41463,1.37742l-0.46883,0.76339c-1.23361,-0.30147 -2.07305,-0.88095 -2.51836,-1.73838c-0.24895,0.56702 -0.66382,1.01094 -1.24467,1.33178c-0.37062,0.20469 -0.84637,0.372 -1.42722,0.50201l-0.41903,-0.71362c0.61127,-0.11617 1.09391,-0.27383 1.44795,-0.47296c0.42318,-0.23787 0.74957,-0.58775 0.97912,-1.04965zM297.32195,198.03263h0.97912v4.94545c0,1.04275 0.54765,1.56412 1.64296,1.56412c0.72191,0 1.31379,-0.33331 1.77572,-0.99988c0.29872,-0.4287 0.56702,-1.09255 0.80488,-1.99146l0.84222,0.51031c-0.28212,0.99849 -0.62095,1.74529 -1.01647,2.24039c-0.62233,0.77168 -1.43137,1.15754 -2.42709,1.15754c-1.03998,0 -1.77295,-0.32084 -2.1989,-0.96254c-0.26829,-0.40107 -0.40245,-0.91829 -0.40245,-1.55168zM307.55306,197.87912h0.9169v1.04552h2.60964v0.78828h-2.60964v0.98743h2.46442v0.77999h-2.46442v1.282c0.98466,0.33192 1.95551,0.83116 2.91252,1.49775l-0.48956,0.78828c-0.72466,-0.54211 -1.53233,-1.02063 -2.42294,-1.43551c-0.02214,0.47298 -0.1134,0.83945 -0.27383,1.09945c-0.27935,0.45084 -0.82977,0.67627 -1.65125,0.67627c-0.63339,0 -1.14232,-0.11894 -1.52677,-0.35679c-0.4287,-0.26552 -0.64307,-0.62508 -0.64307,-1.0787c0,-0.54211 0.28903,-0.94317 0.8671,-1.20318c0.38722,-0.17149 0.89063,-0.25723 1.51019,-0.25723c0.24339,0 0.51029,0.01937 0.80073,0.05809v-1.07041h-2.94154v-0.77999h2.94154v-0.98743h-3.11996v-0.78828h3.11996zM307.55306,203.32244c-0.32915,-0.06917 -0.64445,-0.10373 -0.94594,-0.10373c-0.36787,0 -0.66657,0.05393 -0.89615,0.16182c-0.27381,0.12998 -0.41074,0.31532 -0.41074,0.55596c0,0.2019 0.10648,0.3651 0.31946,0.48956c0.21573,0.12723 0.50341,0.19084 0.86297,0.19084c0.42595,0 0.71914,-0.1134 0.87957,-0.34021c0.12721,-0.17703 0.19084,-0.44117 0.19084,-0.79244zM316.36108,197.85424h0.9335v1.14507h2.44785v0.80073h-2.44785v1.77569c0.09682,0.34021 0.14522,0.64309 0.14522,0.90861c0,0.98466 -0.21713,1.70795 -0.65138,2.16986c-0.47296,0.50616 -1.18519,0.85604 -2.13666,1.04965l-0.47296,-0.70531c0.73849,-0.14106 1.28615,-0.34021 1.64296,-0.59744c0.33467,-0.24339 0.56011,-0.57392 0.67627,-0.99159c-0.29595,0.32361 -0.64861,0.48543 -1.05796,0.48543c-0.45915,0 -0.83116,-0.12998 -1.11605,-0.38999c-0.33467,-0.30701 -0.50203,-0.75234 -0.50203,-1.33593c0,-0.30701 0.0733,-0.60296 0.2199,-0.88786c0.09682,-0.18255 0.21575,-0.33467 0.35681,-0.45636c0.32638,-0.27658 0.71775,-0.41488 1.17414,-0.41488c0.29041,0 0.55317,0.06915 0.78828,0.20744v-0.81733h-4.09494v-0.80073h4.09494zM316.39428,202.16075v-0.15351c0,-0.17703 -0.04149,-0.33329 -0.12446,-0.46883c-0.15489,-0.25446 -0.37893,-0.3817 -0.67211,-0.3817c-0.14935,0 -0.28905,0.04149 -0.41905,0.12446c-0.30424,0.19086 -0.45636,0.48402 -0.45636,0.87955c0,0.24893 0.05532,0.45915 0.16595,0.63064c0.15489,0.23787 0.38308,0.35679 0.68457,0.35679c0.27381,0 0.49095,-0.12308 0.65136,-0.36925c0.1134,-0.17426 0.1701,-0.38033 0.1701,-0.6182zM322.06994,202.72915c0.22129,0 0.43424,0.05255 0.63893,0.15766c0.22681,0.1134 0.41074,0.27797 0.5518,0.49372c0.15489,0.24064 0.23235,0.50064 0.23235,0.77999c0,0.33467 -0.10927,0.63478 -0.32777,0.9003c-0.28489,0.35127 -0.65274,0.52689 -1.10358,0.52689c-0.17426,0 -0.34436,-0.03179 -0.51031,-0.09542c-0.24893,-0.09957 -0.45361,-0.25444 -0.61404,-0.46467c-0.19915,-0.26 -0.2987,-0.5518 -0.2987,-0.87541c0,-0.19638 0.04287,-0.38862 0.12862,-0.57671c0.18255,-0.40659 0.48818,-0.67073 0.9169,-0.79242c0.12725,-0.03595 0.25585,-0.05393 0.38583,-0.05393zM322.06172,203.38466c-0.18807,0 -0.35681,0.06776 -0.50616,0.20328c-0.17426,0.15212 -0.26137,0.34298 -0.26137,0.57256c0,0.09128 0.0166,0.18116 0.0498,0.26966c0.05255,0.12998 0.13414,0.23925 0.24477,0.32777c0.14383,0.11617 0.30424,0.17426 0.48127,0.17426c0.13829,0 0.2697,-0.03872 0.39414,-0.11617c0.24895,-0.15489 0.37341,-0.37341 0.37341,-0.65551c0,-0.12169 -0.03043,-0.24064 -0.09128,-0.35681c-0.14935,-0.27935 -0.37756,-0.41903 -0.68457,-0.41903z"/><path d="M248.01683,209.18064h5.07407v0.9003h-5.07407zM253.71323,215.56159c-0.8934,0.13552 -1.84209,0.20328 -2.84612,0.20328c-1.03169,0 -1.86008,-0.0968 -2.48518,-0.29041c-0.24339,-0.07469 -0.46883,-0.19361 -0.67627,-0.35681c-0.31809,-0.25446 -0.47714,-0.60712 -0.47714,-1.05796c0,-0.56702 0.21852,-1.0635 0.65551,-1.48944l0.72191,0.47712c-0.26552,0.31255 -0.3983,0.60712 -0.3983,0.88372c0,0.30978 0.1867,0.52966 0.56009,0.65967c0.19915,0.0719 0.51583,0.13 0.95008,0.17426c0.35958,0.03872 0.7316,0.05809 1.11605,0.05809c0.97083,0 1.88773,-0.07053 2.75068,-0.21159zM256.34776,208.49193h0.9169v2.3441c0.6583,-0.68317 1.18519,-1.152 1.58072,-1.40646c0.36787,-0.23787 0.74957,-0.35679 1.14507,-0.35679c0.3983,0 0.71914,0.11202 0.96254,0.33606c0.32084,0.29872 0.48127,0.69009 0.48127,1.17414c0,0.12723 -0.01658,0.29593 -0.04978,0.50616c-0.24339,1.54616 -0.3651,2.61657 -0.3651,3.21124c0,0.25446 0.06499,0.3817 0.19499,0.3817c0.08298,0 0.19222,-0.04703 0.32777,-0.14106c0.28487,-0.19638 0.57254,-0.5186 0.86297,-0.96668l0.34021,0.95008c-0.17701,0.28212 -0.39691,0.53243 -0.65969,0.75095c-0.30424,0.25446 -0.62924,0.3817 -0.97497,0.3817c-0.32915,0 -0.585,-0.11479 -0.76755,-0.34436c-0.15489,-0.19638 -0.23235,-0.52414 -0.23235,-0.98328c0,-0.3485 0.04562,-0.87262 0.13691,-1.57241c0.11617,-0.87957 0.19363,-1.53233 0.23235,-1.95826c0.0055,-0.06917 0.00823,-0.12723 0.00823,-0.17426c0,-0.24339 -0.05116,-0.43009 -0.15351,-0.56009c-0.09682,-0.12448 -0.23096,-0.1867 -0.40243,-0.1867c-0.57808,0 -1.46732,0.7703 -2.66773,2.31092v3.91653h-0.9169v-2.87101c-0.4619,0.64722 -0.88784,1.2585 -1.27784,1.8338l-0.43149,-0.98328c0.65551,-0.79382 1.2253,-1.55029 1.70934,-2.26943v-1.05381h-1.45624v-0.83393h1.45624zM268.34627,208.61223h0.90859v1.5019h1.69274v0.82564h-1.69274v2.5474c0.65551,0.30147 1.30412,0.72466 1.94582,1.26955l-0.46467,0.82148c-0.54211,-0.47298 -1.03861,-0.84914 -1.48944,-1.12849c-0.0498,0.67765 -0.29041,1.13126 -0.72189,1.36082c-0.24064,0.12723 -0.56979,0.19084 -0.98743,0.19084c-0.45361,0 -0.84775,-0.08159 -1.18243,-0.24477c-0.50616,-0.24618 -0.75926,-0.65551 -0.75926,-1.22807c0,-0.45084 0.19224,-0.80904 0.57669,-1.07456c0.35127,-0.24339 0.80211,-0.3651 1.35253,-0.3651c0.2517,0 0.52553,0.03179 0.82148,0.09542v-2.24452h-2.66773v-0.82562h2.66773zM268.34627,213.98916c-0.32361,-0.10232 -0.61127,-0.15351 -0.86297,-0.15351c-0.24064,0 -0.4453,0.03735 -0.61404,0.11202c-0.26552,0.1134 -0.39828,0.29872 -0.39828,0.55594c0,0.21021 0.0968,0.37477 0.29043,0.49372c0.18807,0.11617 0.43978,0.17426 0.75511,0.17426c0.55317,0 0.82977,-0.31117 0.82977,-0.9335zM263.8406,215.98475c-0.0968,-0.91275 -0.14522,-1.87252 -0.14522,-2.8793c0,-1.57103 0.10511,-3.06877 0.31532,-4.49322l0.91275,0.13277c-0.20744,1.22807 -0.31117,2.55571 -0.31117,3.98292c0,1.04829 0.05255,2.08688 0.15766,3.1158zM273.77299,208.99393h5.20266v0.7468h-5.63c-0.31532,0.47298 -0.67627,0.88924 -1.08285,1.2488l-0.68871,-0.63478c0.69425,-0.5449 1.1921,-1.2419 1.49359,-2.09104l0.96254,0.1618c-0.07469,0.18255 -0.16043,0.37202 -0.25721,0.5684zM278.26205,211.39611v0.11202c0,1.46593 0.09403,2.51974 0.28212,3.16144c0.08021,0.27658 0.14104,0.41488 0.18255,0.41488c0.02489,0 0.05947,-0.0733 0.10373,-0.2199c0.07746,-0.26 0.13137,-0.59744 0.1618,-1.01232l0.79657,0.59329c-0.09403,0.63062 -0.19499,1.07595 -0.30286,1.33593c-0.16043,0.38724 -0.37618,0.58085 -0.64722,0.58085c-0.23233,0 -0.46604,-0.13829 -0.70115,-0.41488c-0.27658,-0.32361 -0.47712,-0.80211 -0.60158,-1.43551c-0.11617,-0.5836 -0.18393,-1.34147 -0.20328,-2.27359v-0.10373h-5.45161v-0.73849zM274.17957,214.25468c-0.54488,-0.34021 -1.12988,-0.65276 -1.75496,-0.93765l0.59329,-0.60987c0.65274,0.29595 1.23636,0.60019 1.75081,0.91275c0.30701,-0.38724 0.57394,-0.80488 0.80075,-1.25296l0.84637,0.34021c-0.26,0.52276 -0.55319,0.98603 -0.87957,1.38986c0.48681,0.3153 0.98189,0.6735 1.4853,1.07456l-0.60573,0.70531c-0.49785,-0.41488 -0.99157,-0.79103 -1.48115,-1.12847c-0.69425,0.65551 -1.542,1.16169 -2.54326,1.51848l-0.58914,-0.68871c0.98191,-0.3153 1.77433,-0.75647 2.37729,-1.32349zM273.10501,210.24273h5.00353v0.66382h-5.00353zM284.75089,213.25896c0.03872,0.04424 0.06499,0.07469 0.07882,0.09126c0.70531,-0.32084 1.38157,-0.72468 2.0288,-1.21147l0.65969,0.58916c-0.697,0.43978 -1.41754,0.81733 -2.16155,1.13263c0.71914,0.60296 1.64433,1.04 2.77559,1.31104l-0.52691,0.81317c-1.05658,-0.37616 -1.89741,-0.89753 -2.52251,-1.56412c0.01112,0.11894 0.01666,0.23094 0.01666,0.33606c0,1.07595 -0.35679,1.61392 -1.07041,1.61392c-0.27935,0 -0.61127,-0.02352 -0.99572,-0.07053l-0.17839,-0.76339c0.38445,0.06638 0.68594,0.09957 0.90444,0.09957c0.18532,0 0.3084,-0.08159 0.36925,-0.24479c0.0719,-0.18807 0.10786,-0.4619 0.10786,-0.82148c0,-0.0719 -0.00415,-0.15074 -0.01244,-0.23648c-1.05106,0.82977 -2.23764,1.44933 -3.55972,1.85869l-0.50207,-0.68869c1.04275,-0.26 2.01912,-0.6569 2.9291,-1.19071c0.37339,-0.21852 0.69977,-0.43978 0.97912,-0.66382c-0.02766,-0.0719 -0.06363,-0.15351 -0.10786,-0.24477c-0.99849,0.64447 -2.10348,1.13124 -3.31495,1.46039l-0.42318,-0.67627c1.36913,-0.29318 2.51145,-0.72468 3.42697,-1.29444c-0.03872,-0.05255 -0.08713,-0.11063 -0.14522,-0.17426c-0.91275,0.3485 -1.79231,0.61125 -2.63866,0.78828l-0.47298,-0.66382c1.0953,-0.16595 2.13252,-0.4287 3.11165,-0.78828h-2.59304v-1.58488c-0.07469,0.03595 -0.18807,0.0899 -0.34021,0.16182l-0.48543,-0.62233c0.96808,-0.37616 1.80339,-0.95008 2.50593,-1.72176l0.56009,0.3817h2.41049l0.35681,0.3485c-0.30149,0.35958 -0.62647,0.68178 -0.97499,0.96668h2.64284v2.07028h-2.57229c-0.27935,0.13552 -0.55042,0.26137 -0.81319,0.37756c0.22129,0.24618 0.40382,0.52135 0.54765,0.82562zM283.93771,209.9855c0.34575,-0.28489 0.58223,-0.50754 0.70946,-0.66798h-2.02466c-0.29318,0.24064 -0.59188,0.46329 -0.89615,0.66798zM281.83008,210.62443v0.79244h1.9624v-0.79244zM286.68011,211.41687v-0.79244h-2.02466v0.79244zM293.16894,209.40052h3.29006v0.81733h-6.33533v1.51433c0,1.24744 -0.06915,2.22794 -0.20746,2.94154c-0.11894,0.6085 -0.31946,1.16306 -0.60158,1.6637l-0.7468,-0.697c0.25998,-0.49785 0.43286,-1.08978 0.5186,-1.77572c0.06917,-0.56148 0.10373,-1.29583 0.10373,-2.20303v-2.26114h3.03283v-1.0953h0.94592zM293.96967,212.26737v3.26102c0,0.32361 -0.08574,0.54903 -0.25723,0.67627c-0.14106,0.10232 -0.37616,0.15351 -0.70531,0.15351c-0.47296,0 -0.93902,-0.02766 -1.39817,-0.08298l-0.14522,-0.87541c0.50064,0.07469 0.95285,0.11202 1.35668,0.11202c0.10234,0 0.16459,-0.02491 0.1867,-0.07469c0.01383,-0.03595 0.02075,-0.0968 0.02075,-0.18255v-2.98718h-2.55986v-0.81733h6.18182v0.81733zM301.55378,215.11765c1.62359,-0.40936 2.4354,-1.34009 2.4354,-2.79219c0,-0.63339 -0.16318,-1.17829 -0.48956,-1.63465c-0.3651,-0.51447 -0.92106,-0.84499 -1.66785,-0.99157c-0.1632,1.28338 -0.38585,2.33442 -0.66798,3.15313c-0.19363,0.57256 -0.43424,1.11328 -0.72191,1.62221c-0.41488,0.72466 -0.88647,1.08701 -1.41475,1.08701c-0.39276,0 -0.74264,-0.17701 -1.04965,-0.53105c-0.19638,-0.22404 -0.35542,-0.49926 -0.47712,-0.82564c-0.16043,-0.42318 -0.24064,-0.87816 -0.24064,-1.36497c0,-0.78828 0.21713,-1.51435 0.65136,-2.17817c0.43978,-0.67765 1.01096,-1.16998 1.71349,-1.47699c0.51168,-0.22404 1.07318,-0.33606 1.68443,-0.33606c0.95423,0 1.76466,0.25585 2.43123,0.76753c0.81871,0.62787 1.22807,1.51712 1.22807,2.66773c0,1.92784 -0.97499,3.15036 -2.92494,3.66758zM300.93147,209.66604c-0.48958,0.05532 -0.89892,0.1867 -1.22807,0.39414c-0.21021,0.13552 -0.41903,0.31532 -0.62649,0.53936c-0.57531,0.63616 -0.86297,1.37328 -0.86297,2.21134c0,0.61125 0.12171,1.08976 0.3651,1.43551c0.14937,0.21298 0.29734,0.31948 0.44394,0.31948c0.19915,0 0.42318,-0.2199 0.67211,-0.65969c0.6085,-1.07041 1.02063,-2.48377 1.23638,-4.24014zM309.1628,209.42541v-0.35679h-2.59304v-0.59329h6.12372v0.59329h-2.64697v0.35679h3.43526v1.48944h-0.9003v-0.95423h-2.53496v1.6139h-0.8837v-1.6139h-2.48931v0.95423h-0.89201v-1.48944zM312.10021,215.31264c0.42318,0.16043 0.95146,0.28766 1.58488,0.3817l-0.48543,0.70531c-0.88786,-0.15212 -1.61667,-0.41351 -2.18646,-0.78415c-0.56702,-0.37062 -1.00819,-0.83116 -1.32349,-1.38157h-0.9169v1.27786c0.61125,-0.08574 1.17827,-0.17703 1.70103,-0.27383l0.05809,0.6182c-0.9736,0.23235 -2.08688,0.43424 -3.33984,0.60573l-0.24477,-0.7302c0.43424,-0.04703 0.73158,-0.08021 0.89199,-0.09957l0.0498,-0.00823v-1.38986h-0.90861c-0.03872,0.48681 -0.10232,0.87539 -0.19084,1.16583c-0.10511,0.3485 -0.27381,0.6735 -0.50616,0.97499l-0.73851,-0.60989c0.27106,-0.35127 0.43978,-0.76201 0.50616,-1.23222c0.03597,-0.25446 0.05393,-0.57115 0.05393,-0.95008v-1.75912h7.16095v0.5518h-6.26895v1.27371h6.62574v0.58498h-0.94179l0.52691,0.3485c-0.31255,0.26 -0.6818,0.50339 -1.10776,0.7302zM311.45299,214.99319c0.39828,-0.27104 0.71498,-0.52414 0.95008,-0.75924h-1.81305c0.23787,0.30426 0.52551,0.55734 0.86297,0.75924zM307.03859,210.26762h1.76741v0.46883h-1.76741zM307.03859,211.03102h1.76741v0.47712h-1.76741zM310.40331,210.26762h1.82136v0.46883h-1.82136zM310.40331,211.03102h1.82136v0.47712h-1.82136zM307.49082,212.72376h5.16535v0.54351h-5.16535zM318.77573,209.05202h3.25271v0.69702h-1.84211v0.68871h1.72594v0.67211h-1.72594v1.23638h-3.33984v-1.23638h-1.36082v0.7717c0,1.25296 -0.0664,2.24314 -0.19915,2.97058c-0.10234,0.55319 -0.26829,1.05796 -0.49787,1.51435l-0.75509,-0.59742c0.21021,-0.45636 0.35404,-1.01371 0.43147,-1.67201c0.06917,-0.57808 0.10373,-1.31658 0.10373,-2.21548v-2.82954h3.28175v-0.7468h0.92519zM315.48569,209.74904v0.68871h1.36082v-0.68871zM317.73023,209.74904v0.68871h1.57241v-0.68871zM317.73023,211.10986v0.64309h1.57241v-0.64309zM318.69275,215.46617c-0.79936,0.41488 -1.81445,0.73022 -3.04527,0.94594l-0.43147,-0.76339c1.15615,-0.13829 2.06199,-0.34988 2.7175,-0.63478c-0.56148,-0.40659 -1.04138,-0.88922 -1.43966,-1.44795h-0.57256v-0.72191h4.85832l0.43563,0.3651c-0.41213,0.63339 -0.99988,1.22945 -1.76327,1.78818c0.65551,0.26275 1.54891,0.45638 2.68017,0.58085l-0.48543,0.78413c-1.08424,-0.1466 -2.06892,-0.44532 -2.95399,-0.89615zM317.46055,213.56599c0.33467,0.39276 0.74126,0.73849 1.21978,1.03721c0.53934,-0.3485 0.95562,-0.69425 1.2488,-1.03721zM325.45956,211.10986v-2.6926h0.83393v0.8837h1.36082v0.7468h-1.36082v0.9335c0.36787,-0.06086 0.81871,-0.1452 1.35253,-0.25308l0.04149,0.68871c-0.72191,0.2019 -1.58349,0.38031 -2.58475,0.5352l-0.24479,-0.75924c0.11617,-0.01383 0.26414,-0.0332 0.44392,-0.05809zM324.53437,211.19283c0.43147,0.62233 0.64722,1.3152 0.64722,2.07859c0,0.3485 -0.03733,0.61404 -0.11202,0.79657c-0.11617,0.27658 -0.38447,0.41488 -0.80488,0.41488c-0.16043,0 -0.3084,-0.01383 -0.44394,-0.04149l-0.19499,-0.81733c0.17426,0.03595 0.32361,0.05393 0.44807,0.05393c0.13829,0 0.22404,-0.0332 0.25721,-0.09957c0.02489,-0.04978 0.03733,-0.13968 0.03733,-0.26966c0,-0.77722 -0.19638,-1.45349 -0.58914,-2.0288c0.19086,-0.52828 0.36648,-1.1921 0.52691,-1.99146h-0.7136v7.09042h-0.81733v-7.85381h1.9624l0.44394,0.3485c-0.18532,0.90446 -0.40105,1.67753 -0.64722,2.31921zM328.69567,209.31754c0.50893,-0.18532 0.95146,-0.39278 1.32764,-0.62233l0.52691,0.68042c-0.53382,0.25721 -1.15202,0.48127 -1.85454,0.67213v0.73849c0,0.12448 0.0401,0.19915 0.12031,0.22404c0.08021,0.02489 0.24893,0.03733 0.50616,0.03733c0.20746,0 0.34436,-0.01383 0.41074,-0.04149c0.08851,-0.0332 0.1466,-0.12862 0.17426,-0.28628c0.01935,-0.12448 0.03456,-0.32638 0.04564,-0.60573l0.75511,0.22819c-0.00281,0.61956 -0.0844,1.01922 -0.24479,1.199c-0.09955,0.11063 -0.25172,0.17978 -0.45638,0.20744c-0.22956,0.03043 -0.52553,0.04564 -0.88786,0.04564c-0.53382,0 -0.87955,-0.05809 -1.03721,-0.17426c-0.14106,-0.10232 -0.21159,-0.28074 -0.21159,-0.5352v-2.72166h0.82562zM327.00708,212.44163c0.10511,-0.2517 0.18116,-0.50339 0.22819,-0.75509l0.87541,0.09957c-0.05532,0.17978 -0.1452,0.3983 -0.26966,0.65551h2.31092v3.93728h-0.9003v-0.44392h-2.85857v0.44392h-0.89199v-3.93728zM326.39306,213.12205v0.70529h2.85857v-0.70529zM326.39306,214.47458v0.76339h2.85857v-0.76339zM335.97694,212.36697c-0.10511,0.84914 -0.24479,1.53231 -0.41903,2.04953c-0.26,0.77445 -0.61266,1.42306 -1.05796,1.94582l-0.55178,-0.697c0.55317,-0.64168 0.93625,-1.57105 1.14923,-2.78804c0.09405,-0.55042 0.16182,-1.19764 0.2033,-1.94167c0.03043,-0.60021 0.04564,-1.05381 0.04564,-1.36082h-0.70946v-0.81733h3.32324l0.42318,0.34852c-0.17978,0.81871 -0.36096,1.51987 -0.54349,2.10346h1.00403c-0.1632,1.23082 -0.4785,2.25422 -0.94594,3.07016c0.3983,0.45636 0.87126,0.84775 1.41891,1.17414l-0.54351,0.83808c-0.51168,-0.3485 -0.9722,-0.76891 -1.38155,-1.26127c-0.39553,0.50064 -0.91415,0.96668 -1.55583,1.39817l-0.60573,-0.7136c0.45915,-0.26275 0.82287,-0.52278 1.09114,-0.77999c0.16872,-0.16043 0.3485,-0.36648 0.53936,-0.61818c-0.3817,-0.59191 -0.67627,-1.2419 -0.88372,-1.94995zM336.13045,209.96061c0.2019,1.44933 0.60435,2.64284 1.20731,3.58047c0.22956,-0.47019 0.40661,-0.98605 0.53107,-1.54752h-1.14925c0.26,-0.72191 0.48956,-1.52817 0.68871,-2.41878h-1.27369c0,0.12448 -0.0014,0.25308 -0.00421,0.38583zM332.30103,211.42102c-0.35956,-0.50616 -0.75924,-0.97222 -1.19902,-1.39817l0.51031,-0.59329c0.05809,0.05532 0.11617,0.11202 0.17426,0.1701l0.05393,0.05393c0.30149,-0.42318 0.57946,-0.88924 0.83393,-1.39817l0.7468,0.41488c-0.30978,0.49785 -0.67903,1.00265 -1.10776,1.51435c0.21573,0.26829 0.37893,0.4785 0.48956,0.63062c0.42318,-0.51447 0.81871,-1.04688 1.18658,-1.5973l0.65551,0.47296c-0.57531,0.79382 -1.2253,1.56274 -1.94997,2.30676c0.47019,-0.03043 0.8768,-0.06222 1.21976,-0.09542c-0.07467,-0.21573 -0.1632,-0.43701 -0.26552,-0.66382l0.67213,-0.26552c0.24893,0.51447 0.4619,1.12157 0.63891,1.82134l-0.697,0.30288c-0.04701,-0.19361 -0.09819,-0.38583 -0.15351,-0.57669c-0.12723,0.02212 -0.3319,0.05255 -0.61404,0.09126l-0.10786,0.01666v3.75058h-0.83393v-3.65514l-0.09957,0.01244c-0.40659,0.04151 -0.81179,0.07469 -1.21562,0.09957l-0.1701,-0.77168l0.27797,-0.00823c0.12723,-0.0055 0.26137,-0.01104 0.40243,-0.01666c0.16872,-0.17978 0.35265,-0.38583 0.5518,-0.61818zM331.10201,215.40808c0.19915,-0.69979 0.32361,-1.42445 0.37339,-2.17399l0.78413,0.09957c-0.04149,0.94871 -0.16595,1.75912 -0.37339,2.43123zM333.85686,214.88948c-0.05809,-0.52551 -0.15766,-1.03169 -0.2987,-1.51848l0.6804,-0.21573c0.1466,0.48402 0.26,0.95425 0.34021,1.41062zM339.85612,209.31339c2.54463,-0.03872 4.9496,-0.10371 7.21488,-0.19499l0.0498,0.82562c-0.99849,0.04978 -1.77572,0.20192 -2.33167,0.45636c-0.53107,0.24339 -0.95702,0.58085 -1.27786,1.01234c-0.3651,0.48956 -0.54765,1.03446 -0.54765,1.63465c0,0.59742 0.20744,1.0455 0.62233,1.34422c0.47573,0.34021 1.20595,0.57392 2.19061,0.70115l-0.19499,0.9335c-1.28338,-0.17149 -2.18646,-0.50339 -2.70921,-0.99572c-0.56148,-0.52551 -0.84222,-1.17827 -0.84222,-1.95826c0,-0.70808 0.25446,-1.36911 0.76339,-1.98315c0.37062,-0.45084 0.87816,-0.81319 1.52263,-1.08701c-1.14232,0.03872 -2.61518,0.10371 -4.41853,0.19499zM345.88857,212.89386c-0.1632,-0.43424 -0.4384,-0.92658 -0.82562,-1.47699l0.64722,-0.24064c0.34573,0.47573 0.62372,0.96254 0.83393,1.46041zM347.00878,212.45823c-0.19638,-0.50893 -0.47021,-1.00403 -0.82148,-1.48528l0.6182,-0.2199c0.32361,0.39276 0.59881,0.86849 0.82562,1.4272zM353.31504,208.61223h0.90859v1.5019h1.69274v0.82562h-1.69274v2.5474c0.65551,0.30147 1.30412,0.72466 1.94582,1.26955l-0.46467,0.82148c-0.54213,-0.47298 -1.03859,-0.84914 -1.48944,-1.12849c-0.0498,0.67765 -0.29043,1.13126 -0.72191,1.36084c-0.24064,0.12723 -0.56977,0.19084 -0.98743,0.19084c-0.45361,0 -0.84775,-0.08159 -1.18243,-0.24479c-0.50616,-0.24618 -0.75924,-0.65551 -0.75924,-1.22807c0,-0.45084 0.19224,-0.80902 0.57669,-1.07454c0.35127,-0.24339 0.80211,-0.36512 1.35253,-0.36512c0.2517,0 0.52553,0.03179 0.82148,0.09542v-2.24454h-2.66773v-0.82562h2.66773zM353.31504,213.98918c-0.32361,-0.10232 -0.61127,-0.15351 -0.86297,-0.15351c-0.24064,0 -0.4453,0.03733 -0.61404,0.11202c-0.26552,0.1134 -0.3983,0.29872 -0.3983,0.55594c0,0.21021 0.0968,0.37477 0.29041,0.49372c0.18807,0.11617 0.43978,0.17426 0.75509,0.17426c0.55319,0 0.82977,-0.31117 0.82977,-0.9335zM348.80938,215.98477c-0.0968,-0.91275 -0.14522,-1.87252 -0.14522,-2.87932c0,-1.57103 0.10511,-3.06877 0.31532,-4.49322l0.91275,0.13277c-0.20744,1.22807 -0.31117,2.55571 -0.31117,3.98292c0,1.04829 0.05257,2.08688 0.15766,3.1158zM357.3519,209.48765h2.07444c0.05809,-0.4785 0.10232,-0.82148 0.13275,-1.02892l0.92106,0.09542l-0.01244,0.06638l-0.02904,0.21575l-0.03733,0.27797l-0.03733,0.27799l-0.01244,0.09542h3.4311v0.81733h-3.52654c-0.00831,0.09403 -0.02627,0.29457 -0.05393,0.60158l-0.02073,0.26552l-0.00823,0.08298c0.3319,-0.05532 0.67073,-0.08298 1.01645,-0.08298c0.957,0 1.71626,0.22404 2.27774,0.67211c0.1466,0.11894 0.28074,0.26829 0.40245,0.44809c0.24339,0.35958 0.3651,0.77307 0.3651,1.24051c0,0.83254 -0.34298,1.46732 -1.02892,1.90433c-0.44807,0.28489 -1.06902,0.49924 -1.86284,0.64307l-0.3983,-0.7302c0.72743,-0.11894 1.28338,-0.3084 1.66785,-0.5684c0.45913,-0.31255 0.68871,-0.74403 0.68871,-1.29444c0,-0.35679 -0.09957,-0.67073 -0.29872,-0.94179c-0.11617,-0.16043 -0.27245,-0.29043 -0.46883,-0.39001c-0.68871,1.20041 -1.59178,2.17678 -2.70919,2.9291c-0.35956,0.24339 -0.66105,0.40522 -0.90446,0.48543c-0.24064,0.07746 -0.47575,0.11617 -0.70531,0.11617c-0.42318,0 -0.74126,-0.14106 -0.95423,-0.42318c-0.17701,-0.23235 -0.26552,-0.55042 -0.26552,-0.95425c0,-0.71637 0.27104,-1.34838 0.81317,-1.89602c0.40105,-0.40659 0.8837,-0.71914 1.44795,-0.93765l0.00823,-0.11202c0.03318,-0.47573 0.06084,-0.82839 0.08298,-1.05796h-1.99562zM359.21888,212.31717c-0.38722,0.20744 -0.69702,0.46606 -0.92935,0.77584c-0.29595,0.39553 -0.44392,0.78967 -0.44392,1.18243c0,0.43701 0.15764,0.65551 0.47296,0.65551c0.27658,0 0.61681,-0.14935 1.02063,-0.44807c-0.08298,-0.55594 -0.12446,-1.14507 -0.12446,-1.76741c0,-0.08574 0.0014,-0.21852 0.00421,-0.3983zM360.11089,212.00187c-0.0055,0.17978 -0.00823,0.34296 -0.00823,0.48956c0,0.47019 0.02075,0.91277 0.06224,1.32764c0.66934,-0.62233 1.18104,-1.2585 1.53508,-1.90849c-0.17701,-0.02212 -0.35404,-0.0332 -0.53105,-0.0332c-0.36787,0 -0.72052,0.04149 -1.05796,0.12446zM368.28,212.10973c-0.27658,0.51724 -0.56009,0.90582 -0.8505,1.16583c-0.24895,0.22404 -0.47712,0.33606 -0.68457,0.33606c-0.26552,0 -0.47987,-0.17978 -0.64307,-0.53934c-0.16872,-0.37616 -0.25308,-0.96531 -0.25308,-1.76743c0,-0.80765 0.09403,-1.68305 0.2821,-2.62622l0.90861,0.13691c-0.18255,0.93488 -0.27383,1.72592 -0.27383,2.37316c0,0.87126 0.06224,1.30689 0.1867,1.30689c0.04701,0 0.12723,-0.06638 0.24064,-0.19915c0.17703,-0.19915 0.36371,-0.49233 0.56009,-0.87955zM367.64938,215.35829c0.84912,-0.23787 1.48944,-0.59329 1.92091,-1.06627c0.52828,-0.57808 0.79244,-1.4521 0.79244,-2.62208c0,-0.88786 -0.08574,-1.88496 -0.25723,-2.99132l0.9501,-0.09126c0.18255,1.11743 0.27383,2.1588 0.27383,3.12409c0,1.56551 -0.40245,2.69262 -1.20733,3.38133c-0.48958,0.42042 -1.14925,0.76893 -1.97902,1.04552zM376.37443,208.50022h0.9169v1.04552h2.60964v0.78828h-2.60964v0.98743h2.46442v0.77999h-2.46442v1.282c0.98466,0.33192 1.95549,0.83116 2.9125,1.49775l-0.48956,0.78828c-0.72466,-0.54211 -1.53233,-1.02063 -2.42294,-1.43551c-0.02208,0.47298 -0.11334,0.83947 -0.27383,1.09945c-0.27935,0.45084 -0.82977,0.67627 -1.65125,0.67627c-0.63337,0 -1.1423,-0.11894 -1.52677,-0.35679c-0.42872,-0.26552 -0.64309,-0.62508 -0.64309,-1.0787c0,-0.54211 0.28903,-0.94317 0.86712,-1.20318c0.38722,-0.17149 0.89063,-0.25723 1.51019,-0.25723c0.24339,0 0.51029,0.01937 0.80073,0.05809v-1.07041h-2.94154v-0.77999h2.94154v-0.98741h-3.11996v-0.7883h3.11996zM376.37443,213.94351c-0.32915,-0.06917 -0.64445,-0.10373 -0.94594,-0.10373c-0.36787,0 -0.66659,0.05393 -0.89615,0.1618c-0.27381,0.12998 -0.41074,0.3153 -0.41074,0.55594c0,0.2019 0.10648,0.36512 0.31946,0.48956c0.21573,0.12723 0.50341,0.19084 0.86297,0.19084c0.42595,0 0.71914,-0.1134 0.87955,-0.34021c0.12725,-0.17703 0.19088,-0.44117 0.19088,-0.79244zM386.23215,208.57488h0.92519v1.82136h1.52679v0.83393h-1.52679v1.55583c0,0.32361 -0.05393,0.5518 -0.16178,0.68457c-0.13275,0.16595 -0.372,0.24893 -0.71777,0.24893c-0.45913,0 -0.90307,-0.07605 -1.33178,-0.22819v-0.80073c0.45084,0.12448 0.79796,0.1867 1.04136,0.1867c0.16318,0 0.24479,-0.09819 0.24479,-0.29457v-1.35253h-2.81708v3.21953c0,0.17978 0.03177,0.30426 0.09534,0.37341c0.06919,0.08021 0.21992,0.13277 0.45223,0.15766c0.35956,0.04151 0.86433,0.06224 1.51433,0.06224c0.76339,0 1.52956,-0.0332 2.29847,-0.09957v0.87541c-0.82702,0.04978 -1.64296,0.07469 -2.44783,0.07469c-1.19766,0 -1.95551,-0.06915 -2.27359,-0.20744c-0.38168,-0.16318 -0.57254,-0.51585 -0.57254,-1.05796v-3.3979h-1.49359v-0.83393h1.49359v-1.74252h0.9335v1.74252h2.81708zM389.17369,215.60308c1.06764,-2.47273 2.21686,-4.86247 3.4477,-7.16924l0.80904,0.32361c-0.55594,1.02063 -1.21285,2.26391 -1.97073,3.72982c0.52276,-0.56702 1.00544,-0.8505 1.44797,-0.8505c0.697,0 1.0455,0.52553 1.0455,1.57657c0,0.07746 -0.00269,0.17287 -0.00803,0.28628c-0.0107,0.24064 -0.01606,0.43011 -0.01606,0.5684c0,0.32361 0.01935,0.55319 0.05801,0.68871c0.08577,0.29318 0.30013,0.43978 0.64307,0.43978c0.3319,0 0.60158,-0.16182 0.80904,-0.48543c0.30978,-0.48127 0.56425,-1.36497 0.76339,-2.65113l0.81317,0.47712c-0.15764,1.01509 -0.35817,1.78954 -0.60158,2.32336c-0.37616,0.82977 -0.98468,1.24467 -1.82551,1.24467c-0.58085,0 -0.99711,-0.17978 -1.2488,-0.53936c-0.19915,-0.28489 -0.29872,-0.76063 -0.29872,-1.42722c0,-0.05809 0.00269,-0.1466 0.00803,-0.26552c0.01072,-0.23235 0.01606,-0.39691 0.01606,-0.49372c0,-0.30426 -0.02764,-0.52412 -0.08289,-0.65967c-0.06355,-0.14935 -0.17279,-0.22404 -0.32775,-0.22404c-0.26275,0 -0.55873,0.16043 -0.88786,0.48127c-0.28212,0.27658 -0.56009,0.68178 -0.83393,1.2156c-0.19915,0.38724 -0.50201,1.04413 -0.90861,1.97071zM399.21807,213.35024c0.22127,0 0.43426,0.05255 0.63893,0.15766c0.22681,0.1134 0.41074,0.27799 0.5518,0.49372c0.15487,0.24064 0.23233,0.50064 0.23233,0.77999c0,0.33467 -0.10925,0.63478 -0.32775,0.9003c-0.28489,0.35127 -0.65276,0.52691 -1.1036,0.52691c-0.17426,0 -0.34434,-0.03179 -0.51031,-0.09542c-0.24893,-0.09957 -0.45361,-0.25444 -0.61402,-0.46467c-0.19915,-0.26 -0.29872,-0.5518 -0.29872,-0.87541c0,-0.19638 0.04287,-0.3886 0.12866,-0.57669c0.18255,-0.40659 0.48818,-0.67073 0.9169,-0.79242c0.12725,-0.03595 0.25587,-0.05393 0.38583,-0.05393zM399.21004,214.00576c-0.18807,0 -0.35681,0.06776 -0.50616,0.20328c-0.17426,0.15212 -0.26137,0.34296 -0.26137,0.57254c0,0.09128 0.01658,0.18116 0.04978,0.26968c0.05259,0.12998 0.1342,0.23925 0.24479,0.32777c0.14381,0.11617 0.30422,0.17426 0.48125,0.17426c0.13829,0 0.2697,-0.03872 0.39414,-0.11617c0.24893,-0.15489 0.37341,-0.37341 0.37341,-0.65551c0,-0.12169 -0.03045,-0.24064 -0.09132,-0.35681c-0.14937,-0.27935 -0.37754,-0.41903 -0.68455,-0.41903z"/></g></g></g></svg>